<svg version="1.2" xmlns="http://www.w3.org/2000/svg" viewBox="0 0 406 408" width="406" height="408">
	<title>logoNumeriq-svg</title>
	<style>
		.s0 { fill: #eca927 } 
		.s1 { fill: #d6d7d2 } 
		.s2 { fill: #0b6cb4 } 
		.s3 { fill: #24acdc } 
		.s4 { fill: #609ac1 } 
	</style>
	<rect width="406" height="408" id="Capa 1" style="fill: #ffffff"/>
	<g id="svgg">
		<path id="path0" fill-rule="evenodd" class="s0" d="m65.5 26.6c0.5 0.2 1.3 0.3 1.9 0.4 0.7 0 1.2 0.2 1.2 0.3 0 0.2 0.3 0.3 0.6 0.2 0.3-0.2 0.6-0.1 0.6 0.1 0 0.3 0.2 0.3 0.4 0.2 0.2-0.1 0.5 0 0.6 0.2 0.1 0.2 0.4 0.3 0.6 0.2 0.2-0.1 0.4 0 0.4 0.2 0 0.2 0.2 0.3 0.4 0.2 0.2-0.1 0.4 0 0.4 0.2 0 0.2 0.2 0.3 0.4 0.2 0.2-0.1 0.4 0 0.4 0.2 0 0.3 0.1 0.4 0.2 0.3 0.2-0.1 0.6 0 0.9 0.3 0.4 0.3 0.8 0.6 1 0.5 0.1-0.1 0.5 0.3 0.9 0.7 0.4 0.6 0.6 0.7 0.6 0.2q0-0.6 1.1 0.6c0.6 0.7 1.4 1.4 1.8 1.5 0.4 0.2 0.9 0.7 1.1 1.3 0.2 0.5 1.1 1.7 2 2.7 0.8 0.9 1.5 1.8 1.4 2-0.2 0.2 0 0.3 0.2 0.3 0.2 0 0.3 0.2 0.2 0.4-0.1 0.1 0 0.5 0.3 0.7 0.3 0.3 0.8 1.2 1.1 2.1 0.3 0.9 0.7 1.6 0.9 1.6 0.1 0 0.3 0.5 0.3 1.2 0 0.6 0.2 1.3 0.4 1.4 0.2 0.1 0.4 0.9 0.4 1.6 0 0.7 0.1 1.4 0.3 1.5 0.4 0.3 0.2 8.6-0.3 10.7-0.3 1-0.6 2.4-0.7 3.1-0.1 0.7-0.3 1.3-0.5 1.3-0.2 0-0.6 0.7-0.8 1.5-0.3 0.8-1.1 2.3-1.9 3.4-0.7 1-1.2 1.9-1 1.9 0.1 0-1.2 1.4-3 3.2-1.8 1.8-3.5 3.2-3.7 3.2-0.2 0-0.4 0.2-0.4 0.4 0 0.3-0.2 0.3-0.4 0.2-0.2-0.1-0.7 0.1-1.1 0.6-0.3 0.4-0.8 0.7-1 0.6-0.2-0.2-0.3 0-0.3 0.2 0 0.2-0.2 0.3-0.4 0.2-0.2-0.1-0.4 0-0.4 0.2 0 0.2-0.2 0.3-0.4 0.2-0.2-0.1-0.4 0-0.4 0.2 0 0.3-0.3 0.4-0.6 0.3-0.3-0.2-0.6-0.1-0.6 0.1 0 0.2-0.3 0.3-0.6 0.1-0.3-0.1-0.6 0-0.6 0.2 0 0.2-0.5 0.4-1.1 0.4-0.5 0.1-1.2 0.2-1.5 0.4-1.3 1-11.7 0.8-14.3-0.3-0.7-0.2-1.3-0.3-1.5-0.2-0.2 0.1-0.4 0.1-0.4-0.2 0-0.2-0.2-0.4-0.5-0.4-0.3 0-1.4-0.5-2.4-1-1-0.6-1.9-0.9-1.9-0.8 0 0.1-0.4-0.1-0.9-0.6-0.5-0.4-1.1-0.8-1.3-0.8-0.3 0-0.6-0.3-0.8-0.7-0.1-0.3-0.3-0.5-0.4-0.4-0.2 0.2-4.8-4-4.8-4.5 0-0.2-0.4-0.6-0.9-1.1-0.5-0.4-1-1-1-1.3-0.1-0.4-0.4-1.1-0.7-1.6-1.1-1.8-2-4-2.3-5.6-0.1-0.5-0.3-1.1-0.4-1.2-0.2-0.1-0.4-1.2-0.4-2.4-0.1-1.2-0.3-2.4-0.5-2.6-0.5-0.5-0.5-3.2 0-4.8 0.6-2.1 1.4-6 1.3-6.7-0.1-0.4 0.1-0.7 0.3-0.7 0.3 0 0.4-0.3 0.3-0.6-0.2-0.3 0-0.8 0.2-1.1 0.3-0.3 0.5-0.8 0.6-1 0.1-0.3 0.5-0.9 0.9-1.4 0.8-0.8 0.9-1.2 0.7-1.7-0.1-0.1 0.3-0.5 0.8-0.8 0.5-0.4 0.9-0.8 0.9-1.1 0-0.5 5.1-5.5 5.4-5.2 0.1 0.1 0.3-0.1 0.4-0.4 0.2-0.4 0.4-0.6 0.6-0.5 0.2 0.1 0.5 0 0.6-0.4 0.2-0.3 0.4-0.5 0.6-0.4 0.2 0.1 0.5 0 0.6-0.2 0.3-0.5 3-1.8 3.5-1.7 0.2 0.1 0.3-0.1 0.3-0.3 0-0.2 0.4-0.4 1-0.4 0.5 0 1.1-0.2 1.2-0.4 0.1-0.2 0.9-0.4 1.8-0.4 0.9 0 1.6-0.1 1.7-0.3 0.3-0.4 9.5-0.3 10.4 0.1zm107.5 120.2c-14.5 0.8-25.1 7.5-31.5 20-0.8 1.7-1.6 3.1-1.8 3.1-0.2 0.1-0.2 0.3-0.1 0.5 0.2 0.3-0.9 4.4-1.4 5-0.4 0.5-0.4 15.1 0 15.6 0.2 0.2 0.6 1.5 1 2.8 0.4 1.3 1.3 3.6 2 5.2 0.8 1.5 1.4 2.9 1.4 3.1 0 0.1 0.4 0.8 1 1.4 0.5 0.6 1.8 2.2 3 3.6 14 17 42.6 16.5 56-1.1 0.6-0.8 1.2-1.5 1.4-1.8 1.4-1.6 4.8-9 5.3-11.4 0.1-0.5 0.3-1.3 0.6-1.8 0.6-1.1 0.6-14 0-15.6-0.2-0.7-0.6-2-0.9-3-0.7-2.5-3.5-8.2-5.1-10.4-1.3-1.7-6.8-7.6-7.1-7.6-0.1 0-1.1-0.6-2.1-1.4-2.5-1.8-6.2-3.6-9-4.4-1.3-0.4-2.3-0.8-2.3-0.9 0-0.2-0.9-0.3-2.1-0.4-1.2-0.1-2.2-0.3-2.2-0.5-0.1-0.2-0.3-0.4-0.4-0.3-0.2 0-2.7 0.2-5.7 0.3zm-114 10.2c-13.5 3.1-19.7 16.4-13.7 29.7 0.8 1.7 5.8 7 6.8 7.2 0.4 0 0.7 0.2 0.8 0.5 0.1 0.2 0.3 0.4 0.5 0.4 0.3 0 1.1 0.3 1.9 0.7 0.8 0.3 2 0.7 2.7 0.8 0.7 0 1.2 0.3 1.3 0.4 0.1 0.4 6.4 0.3 7.3-0.1 0.4-0.1 1.2-0.3 1.8-0.3 0.7-0.1 1.3-0.2 1.4-0.3 0.3-0.4 4-2 4.2-1.9 0.1 0.1 0.4-0.3 0.8-0.7 0.3-0.4 0.6-0.6 0.6-0.4 0 0.2 0.5-0.2 1.1-0.9 0.6-0.6 1.4-1.3 1.8-1.4 0.4-0.2 0.7-0.6 0.7-1 0-0.4 0.4-1.2 0.9-1.8 0.5-0.5 1-1.2 1-1.5 0.1-0.3 0.3-0.7 0.6-0.8 0.2-0.2 0.4-0.4 0.4-0.6-0.1-0.8 0.8-3.8 1-3.8 0.2 0 0.3-2 0.3-4.4 0-2.4-0.1-4.4-0.3-4.4-0.1 0-0.4-0.6-0.5-1.3-2-9.5-13.5-16.4-23.4-14.1zm8.1 55.5c-0.2 0.2-1.2 0.3-2.2 0.4-1.1 0-1.9 0.1-1.9 0.3 0 0.2-4.2 1.8-4.8 1.8-0.2 0-0.6 0.3-1 0.7-0.3 0.4-0.8 0.6-1 0.5-0.2-0.1-0.4 0.1-0.6 0.5-0.1 0.3-0.3 0.5-0.4 0.4-0.2-0.2-1.4 1-5.7 5.6-5.2 5.3-6.6 18.5-2.9 26.3 0.5 0.8 0.8 1.8 0.8 2 0 0.3 0.3 1.5 0.7 2.8 0.5 1.3 1.2 3.8 1.7 5.4 0.5 1.7 1.1 3.2 1.2 3.4 0.2 0.2 0.4 0.7 0.4 1.1 0 0.4 0.2 1 0.4 1.4 0.1 0.4 0.5 1.1 0.7 1.7 0.7 1.8 1.5 3.6 3.1 7.5 0.4 0.8 1.3 2.8 2.1 4.5 0.8 1.6 1.5 3.1 1.5 3.2 0 0.1 0.4 0.8 0.9 1.6 0.5 0.8 1.1 2 1.3 2.7 0.3 0.7 0.6 1.3 0.9 1.3 0.2 0 0.3 0.2 0.1 0.3-0.1 0.2 0.2 0.8 0.6 1.2 0.5 0.5 0.7 0.9 0.5 0.9-0.2 0-0.1 0.1 0.1 0.3 0.7 0.5 2.6 3.6 2.3 3.9-0.1 0.1 0 0.2 0.2 0.2 0.3 0 0.5 0.2 0.5 0.4 0 0.2 0.3 0.8 0.7 1.2 0.4 0.5 1 1.3 1.3 1.9 0.3 0.6 0.9 1.4 1.3 1.9 0.4 0.4 0.7 1 0.7 1.3 0 0.3 0.1 0.5 0.3 0.5 0.6 0 2.9 3.6 2.6 4.1-0.1 0.2 0 0.3 0.2 0.2 0.6-0.4 1.4 0.7 1.1 1.4-0.2 0.3-0.2 0.4 0 0.2 0.3-0.3 1 0.4 2.4 2.3 0.5 0.6 1.3 1.6 1.8 2.2 0.5 0.6 1.9 2.2 3 3.5 3.4 3.9 13.9 14.2 18.3 17.8 0.6 0.5 1.6 1.3 2.1 1.7 0.5 0.5 1.2 1 1.6 1.1 0.3 0.2 0.6 0.5 0.6 0.7 0 0.2 0.3 0.4 0.6 0.4 0.4 0 0.8 0.4 0.9 0.8 0.1 0.5 0.4 0.8 0.8 0.6 0.3-0.1 0.5 0.1 0.5 0.5q0 0.6 0.6 0.3 0.7-0.2 0.9 0.6c0.1 0.4 0.4 0.7 0.6 0.5 0.2-0.1 0.5 0 0.6 0.1 0.2 0.2 1.1 0.9 2.1 1.6 1 0.7 1.9 1.4 2.1 1.5 0.3 0.5 3.1 2.2 4.4 2.7 0.6 0.3 1.1 0.6 1.1 0.8 0 0.2 0.3 0.4 0.7 0.6 0.4 0.1 1.6 0.7 2.7 1.4 5 2.9 17.7 8.9 21.2 10 0.9 0.3 1.8 0.6 2 0.8 0.6 0.4 11.2 3.8 15.4 4.9 21.2 5.6 43.9 6.7 66.1 3.5 1.6-0.3 4-0.6 5.3-0.8 4.1-0.6 7.9-2 11-4 14.4-9.4 15.5-30.9 2.1-42-2.3-1.9-4.3-2.9-9.1-4.8-2-0.8-6.9-1.1-12.6-0.6-3.6 0.2-4.1 0.3-10.6 1-6.7 0.8-24 0.5-25.8-0.4-0.3-0.1-1.6-0.3-2.7-0.3-1.2 0-2.4-0.3-2.7-0.5-0.3-0.2-1.2-0.4-2-0.5-0.8 0-1.5-0.2-1.6-0.4-0.2-0.1-0.9-0.3-1.8-0.3-0.8 0-1.6-0.1-1.7-0.3-0.2-0.1-0.6-0.3-1-0.4-0.9-0.1-3.6-0.9-4.7-1.3-0.4-0.2-2-0.7-3.4-1.2-1.4-0.5-3.4-1.2-4.3-1.6-0.9-0.5-1.8-0.8-2-0.8-0.3 0-3-1.2-7.7-3.5-2.5-1.3-6-3.4-11.4-6.8-1.5-1-5.3-3.9-7.7-5.8-0.6-0.5-1.8-1.6-2.7-2.5-0.9-0.9-1.9-1.8-2.3-1.9-0.4-0.2-0.7-0.6-0.7-0.9 0-0.3-0.2-0.6-0.5-0.6-0.3 0-1.1-0.7-1.7-1.6-0.5-0.9-1.2-1.6-1.5-1.6-0.5 0-4.3-4-4.3-4.5 0-0.2-0.8-1.1-1.8-2.1-1-1-1.8-2-1.8-2.1 0-0.2-0.6-1-1.4-1.9-0.8-0.8-1.4-1.7-1.4-2 0-0.4-0.2-0.6-0.4-0.6-0.3 0-0.4-0.3-0.2-0.6 0.1-0.4 0-0.5-0.2-0.4-0.3 0.2-3.2-3.8-3.2-4.5 0-0.1-0.2-0.5-0.5-0.9-0.9-0.9-3.1-5.2-2.8-5.2 0.2 0 0.1-0.1-0.2-0.3-0.4-0.3-3.2-5.9-4.4-9.1-0.3-0.9-0.8-1.8-1-2-0.1-0.2-0.3-0.7-0.3-1.2 0-0.5-0.1-1-0.3-1.2-0.2-0.2-0.6-1.2-0.9-2.2-0.2-1-0.6-2.2-0.8-2.6-0.6-1.6-1.2-3.7-1.2-4.3 0-0.4-0.2-1-0.4-1.4-0.2-0.4-0.5-1.5-0.8-2.5-0.8-3-2.9-7.7-3.8-8.4-0.3-0.3-0.6-0.7-0.6-0.8 0-0.2-0.4-0.8-0.8-1.2-0.4-0.4-0.8-1.1-0.8-1.4 0-0.3-0.2-0.6-0.5-0.6-0.3 0-1.1-0.7-1.9-1.6-0.7-0.8-1.6-1.4-1.9-1.3-0.3 0.1-0.6-0.1-0.7-0.5-0.2-0.3-0.4-0.5-0.6-0.4-0.1 0.1-0.7-0.2-1.1-0.6-0.5-0.4-1.1-0.8-1.3-0.8-0.3 0-0.8-0.2-1.3-0.5-0.5-0.2-1.3-0.5-1.7-0.6-0.4-0.1-0.9-0.3-1-0.4-0.1-0.2-1-0.4-2-0.4-1-0.1-2-0.3-2.2-0.5-0.6-0.4-6-0.4-6.5 0.1z"/>
		<path id="path1" fill-rule="evenodd" class="s1" d="m62.5 25.6c1.9 0.1 0 0.8-2.2 0.7-3 0-4-0.3-2.5-0.7 0.9-0.3 1.8-0.3 4.7 0zm-7.3 0.8c-0.1 0.2-0.8 0.4-1.5 0.4-1 0-1.2-0.1-0.7-0.4 0.8-0.5 2.5-0.5 2.2 0zm10.4-0.4c1.3 0 2.6 0.5 2.6 0.9 0 0.4-2.4 0-3-0.5-0.2-0.3-0.1-0.4 0.4-0.4zm-14.6 0.8c0.5 0 0.7 0.2 0.6 0.4-0.1 0.2-0.5 0.4-0.8 0.4-0.3 0-0.6-0.2-0.6-0.4 0-0.2 0.4-0.4 0.8-0.4zm-3 1.2c0.8 0 0.8 0 0 0.6-1.1 0.9-2 0.6-1.1-0.3 0.1-0.2 0.6-0.3 1.1-0.3zm-2.4 1.2c0.3 0 0.6 0.1 0.6 0.2 0 0-0.3 0.3-0.6 0.6-0.5 0.4-0.6 0.4-0.6-0.2 0-0.3 0.3-0.6 0.6-0.6zm29.4 0.4c0.4 0.2 0.8 0.6 0.8 0.8 0 0.2-0.4 0.2-0.8-0.1-0.4-0.3-0.8-0.6-0.8-0.8 0-0.2 0.4-0.1 0.8 0.1zm6.5 4.8c0.6 0 2.1 2.8 1.5 2.8-0.3 0-2-2.1-2-2.6 0-0.1 0.2-0.2 0.5-0.2zm-43.4 1.4c0.2 0.2 0.1 0.4-0.2 0.5-0.3 0.1-0.5 0.4-0.5 0.7 0 0.5-1.1 1.6-1.4 1.3-0.1 0 0.3-0.7 0.9-1.4 0.5-0.8 1.1-1.2 1.2-1.1zm-2.6 4.2c-0.4 0.7-0.8 1.2-1 1.2-0.4 0-0.4-0.3 0.3-1.4 1-1.4 1.6-1.2 0.7 0.2zm51.4 2.6c0.3 0.6 0.5 1.2 0.5 1.4 0 0.7-0.7 0.4-0.9-0.3-0.1-0.4-0.3-1-0.5-1.4-0.5-1.1 0.4-0.8 0.9 0.3zm0.9 2.4c0.2 0.1 0.4 0.7 0.4 1.2 0 0.6-0.2 0.9-0.4 0.8-0.2-0.1-0.4-0.7-0.4-1.2 0-0.6 0.2-0.9 0.4-0.8zm-55.3 0.6q0.6 0 0.3 0.7c-0.1 0.4-0.5 1.7-0.7 2.9-0.2 1.2-0.5 2.6-0.7 3-0.5 1.3-0.5-1.6 0.1-4.3 0.3-1.5 0.7-2.3 1-2.3zm56.1 2.6c0.2 0.1 0.4 0.7 0.4 1.2 0 0.6-0.2 0.9-0.4 0.8-0.2-0.1-0.4-0.7-0.4-1.2 0-0.6 0.2-0.9 0.4-0.8zm78.7 0.9c0.2 0.2-1.6 0.3-4.1 0.3-2.5 0-4.6-0.1-4.6-0.3 0-0.4 8.1-0.4 8.7 0zm62.9-0.2c1.4 0 2 0.1 1.3 0.2-0.7 0.1-1.9 0.1-2.6 0-0.7-0.1-0.1-0.2 1.3-0.2zm6.1 0.7c0.6 0 1.2 0.2 1.3 0.4 0.3 0.5-0.5 0.5-1.6 0-0.7-0.3-0.7-0.3 0.3-0.4zm-65.3 0.4c1.1 0 2.3 0.6 1.9 1-0.1 0.1-0.8 0-1.6-0.3-1.2-0.6-1.2-0.6-0.3-0.7zm-81.6 4.6c0 1.7-0.2 3-0.4 3-0.4 0-0.6-5.3-0.1-5.7 0.5-0.5 0.5-0.3 0.5 2.7zm160.3-1c0.5 0 0.9 0.2 0.9 0.4 0 0.5-0.4 0.5-1.2 0-0.5-0.3-0.4-0.4 0.3-0.4zm-102.6 1.6c0.3 0 0 0.4-0.5 1-0.5 0.5-1.1 1-1.3 1-0.3 0 0-0.5 0.5-1 0.5-0.6 1.1-1 1.3-1zm108.7 0.4c0.3 0 1 0.3 1.6 0.6l1 0.6-1-0.2c-0.6-0.2-1.3-0.5-1.6-0.6-0.5-0.3-0.5-0.4 0-0.4zm-224.5 1.4c0.5 0.5 0.9 4.6 0.5 4.6-0.4 0-0.8-1.5-0.8-3.4 0-0.9 0.1-1.4 0.3-1.2zm113.4 1c0.2 0 0.1 0.4-0.3 0.8-0.8 0.9-1.4 0.7-0.6-0.2 0.3-0.3 0.7-0.6 0.9-0.6zm-55.8 1.2c0.2 0.6-0.7 4.8-1.2 5-0.4 0.3-0.4-0.5 0.1-2 0.2-0.6 0.5-1.7 0.6-2.4 0.2-0.7 0.4-1 0.5-0.6zm95.9 3.4c1 0.9 1.1 1.8 0.2 1.8-0.2 0-1.2-2.1-1.2-2.6 0-0.1 0.5 0.3 1 0.8zm-152.1 0.4c0.1 0.5 0.1 1-0.1 1-0.3 0-0.8-1-0.8-1.6 0-0.8 0.7-0.3 0.9 0.6zm0.3 1.6c0.2 0.1 0.4 0.5 0.4 0.8 0 0.4-0.2 0.5-0.4 0.4-0.2-0.1-0.4-0.5-0.4-0.8 0-0.4 0.2-0.5 0.4-0.4zm152.3 0.2c0.5 0 0.9 1 0.9 2.1 0 1.1-0.6 0.5-1-1-0.1-0.6-0.1-1.1 0.1-1.1zm-98.2 0.4c0.2 0 0.3 0.3 0.1 0.7-0.2 0.4-0.4 1-0.5 1.4-0.1 0.4-0.4 0.7-0.5 0.7-0.5 0-0.5 0 0-1.5 0.3-0.7 0.7-1.3 0.9-1.3zm53.6 1.1c0.4 0.4 0.4 0.6 0 1-0.4 0.4-0.5 0.2-0.5-0.5 0-0.7 0.1-0.9 0.5-0.5zm-105.7 2.5c0.4 0.6 0.6 1.1 0.3 1.1-0.5 0.2-1.1-0.6-1.1-1.5q0-0.6 0.8 0.4zm50.1 1.5c-0.4 1.1-1 1.7-1.4 1.7-0.6 0-0.5-0.3 0.6-1.8 1.4-2.2 1.8-2.1 0.8 0.1zm55.2 1.8c-0.1 4-0.1 3.9-0.5 2.9-0.4-1-0.5-3.6-0.1-5.4 0.4-2 0.6-1 0.6 2.5zm45.9-3.7c0.6 0 1 5.3 0.6 6.6-0.6 1.3-0.8 0.4-0.8-3 0-2 0.1-3.6 0.2-3.6zm17.5 2.9c0.1 0.4 0.1 1 0 1.4-0.1 0.4-0.2 0.1-0.2-0.7 0-0.8 0.1-1.1 0.2-0.7zm-120.1 2c0.2 0.4 1 1.5 1.8 2.4 0.8 0.8 2.1 2.2 2.8 3.2 0.8 0.9 1.5 1.8 1.6 1.9 0.2 0.1 1.8 1.9 3.6 4 1.8 2.1 3.4 3.9 3.6 4 0.1 0.1 1.3 1.5 2.6 3 1.3 1.5 2.6 3 2.8 3.2 0.2 0.3 2 2.4 4 4.6 2 2.3 4.9 5.5 6.5 7.2 1.7 1.6 3.1 3.3 3.2 3.6 0.2 0.4 1.5 2 3 3.6 1.4 1.7 6 6.9 10.1 11.6 4.2 4.7 8.4 9.6 9.6 10.8 1.1 1.3 2.4 2.8 3 3.4 1.3 1.7 9.2 10.6 10.2 11.7l0.9 0.9 1.7-0.8c2.7-1.3 2.2-0.7-1.1 1.4-4.9 3.2-9.6 8.8-12.4 14.6q-1.7 3.7-1.7 1.6c0-0.4 0.2-0.8 0.4-0.8 0.2 0 0.4-0.3 0.4-0.6 0-0.3 0.4-1.2 0.8-1.9 0.4-0.7 0.8-1.6 0.8-2 0-0.4 0.2-0.7 0.4-0.7 0.2 0 0.8-0.7 1.4-1.5 0.5-0.8 1.5-2.1 2.2-2.8 1.6-1.6 1.5-1.6-3-6.7-1.6-1.7-3-3.5-3.2-3.9-0.3-0.5-4.1-4.8-6-6.9-0.2-0.2-2.8-3.2-5.8-6.6-2.9-3.4-6.5-7.5-8-9.2-1.5-1.6-3.6-4.1-4.8-5.4-1.1-1.3-2.7-3-3.5-3.8-0.8-0.8-2-2.2-2.7-3-0.7-0.8-1.6-1.9-2.1-2.4-0.4-0.5-1.1-1.3-1.4-1.8-0.3-0.5-1.3-1.6-2.2-2.5-0.8-0.9-1.9-2.2-2.4-2.9-0.5-0.6-1.8-2-2.8-3.2-2.1-2.3-4.1-4.5-13.1-14.8-3.5-4-6.6-7.3-6.9-7.3-0.8-0.2-0.7-0.3 2.2-3.2 3.1-3.2 3.1-3.2 3.5-2zm-44.4 1.5c0.6 0 2.8 2.3 2.5 2.6-0.1 0.1-0.8-0.4-1.5-1.2-0.7-0.8-1.2-1.4-1-1.4zm101.9 3.8c0 0.7 0.2 1.3 0.3 1.4 0.6 0.5 0.8 2 0.3 2-0.5 0-1.5-3.3-1.5-4.8 0-1 0.7 0.2 0.9 1.4zm45-1.3c0.2 0.8-0.1 1.4-0.5 1-0.2-0.2-0.2-0.6 0-1 0.3-0.7 0.3-0.7 0.5 0zm17.6 0.4c0.1 0.4 0.1 1 0 1.4-0.1 0.4-0.2 0.1-0.2-0.7 0-0.8 0.1-1.1 0.2-0.7zm-158.9 1.3q0.8 0.6 0.3 1c-0.6 0.6-1.7 0-1.7-0.8 0-0.9 0.3-1 1.4-0.2zm31.8-0.6c0.7 0 0.4 0.7-0.6 1.2-0.5 0.3-1.1 0.4-1.3 0.2-0.3-0.3 0.7-1 1.2-0.8 0.2 0.2 0.3 0.1 0.3-0.2 0-0.2 0.2-0.4 0.4-0.4zm-28.9 2.2c1 0.5 2.1 1 2.4 1 0.3 0 0.5 0.2 0.5 0.4 0 0.5-2.4 0.1-2.8-0.4-0.1-0.1-0.6-0.5-1.1-0.8-0.5-0.2-0.9-0.6-0.9-0.8 0-0.2 0.9 0 1.9 0.6zm137.7 0.2c0 0.5-0.3 0.9-0.6 1.1-0.3 0.1-0.6 0.5-0.6 0.8 0 0.4-0.1 0.5-0.2 0.4-0.2-0.1 0-0.9 0.2-1.7 0.6-1.5 1.2-1.9 1.2-0.6zm-133.5 1.4c1.2 0.4 1.8 1 1 1-0.9 0-1.9-0.4-1.9-0.9 0-0.2 0.4-0.2 0.9-0.1zm17-0.2c0.1 0 0.1 0.3 0.1 0.6q0 0.6-1.3 0.6c-1.3 0-1.1-0.6 0.3-0.9 0.4-0.1 0.8-0.2 0.9-0.3zm-12.8 1.1c2.8 0.4 6.6 0.4 8.4 0 1.2-0.3 1.3-0.2 1.1 0.5-0.1 0.4-0.1 3.3 0.2 6.3 0.2 3 0.7 10.5 1 16.7 1.4 27 1.8 34.3 2.2 39.6 0.2 3.1 0.4 6.8 0.4 8.3 0 2.4 0.1 2.6 0.9 2.8 0.5 0.2 0.8 0.4 0.6 0.5-0.1 0.2-0.6 0.1-1-0.1-0.4-0.3-2.3-0.7-4.2-1l-3.5-0.5v-4.8c0-2.6-0.2-6.9-0.4-9.4-0.2-2.5-0.7-10.1-1-16.8-0.3-6.7-0.7-13.1-0.8-14.2-0.1-1.1-0.4-5.9-0.6-10.6-0.2-4.7-0.5-10.4-0.6-12.5l-0.3-3.9h-1.1c-1.7 0-3.6-0.5-3.6-0.9 0-0.2 1-0.2 2.3 0zm91.1 5.6l1.6 1.8-1.4-0.9c-1.3-0.9-2.8-2.3-2.8-2.7 0-0.6 1.3 0.3 2.6 1.8zm33.3-1.1c0.4 0-1.7 2.4-2.3 2.6-0.3 0.1 0-0.4 0.8-1.2 0.7-0.8 1.4-1.4 1.5-1.4zm-29.1 4.4c0.5 0.3 0.8 0.5 0.7 0.6-0.3 0.3-1.5-0.2-1.5-0.7 0-0.2 0.4-0.1 0.8 0.1zm23.9 0.5c-0.1 0.3-0.6 0.6-1.1 0.6-1 0.2-1 0.1-0.2-0.5 1-0.7 1.5-0.8 1.3-0.1zm-16.9 2.4q0.8 0.3-0.8 0.1c-0.9-0.2-1.9-0.4-2.2-0.7-0.7-0.4 1.8 0 3 0.6zm10.9-0.1c-0.6 0.4-0.7 0.8-0.5 2.3 0.4 3.5 1.4 13.4 2.2 21.7 0.5 4.5 1.1 10.5 1.4 13.4 0.3 2.9 0.7 6.5 0.8 8.2 0.4 5.2 0.3 5.1 2.8 5.4 3.6 0.4 2.5 1-2.1 1-3.7 0-7.2 0.5-10.4 1.4-0.5 0.2-0.9 0.1-0.9-0.1 0-0.3 1-0.8 2.2-1.1 1.7-0.5 2.2-0.8 2-1.3-0.1-0.4-0.5-3.9-0.8-7.7-0.3-3.8-0.7-7.3-0.8-7.6-0.1-0.3-0.4-2.8-0.6-5.4-0.2-2.6-0.7-7.5-1-10.8-1.7-16.3-1.9-18-2.5-18.5-0.5-0.4-0.1-0.5 2.5-0.5 1.8-0.1 3.6-0.2 4.2-0.4 1.5-0.5 2.4-0.5 1.5 0zm156.4 8c0.5 0.8 0.3 0.7-0.9-0.4-0.7-0.7-1.4-1.5-1.4-1.7 0-0.8 1.4 0.5 2.3 2.1zm4.5 5.4c0.4 0.4 0.7 0.8 0.6 0.9-0.3 0.3-1.4-0.7-1.4-1.2 0-0.2 0.4-0.1 0.8 0.3zm-76.5 3c0.7 0 1.7 0.5 1.7 0.8 0 0.4-1.5 0-1.8-0.4-0.1-0.2-0.1-0.4 0.1-0.4zm25.5 18.3c1 0.5 2.1 1.7 1.5 1.7-0.2 0-0.8-0.5-1.3-1.1-0.9-0.9-0.9-1-0.2-0.6zm-96.4 17.3c0.2 0.3 0.2 0.5 0.1 0.6-0.3 0.3-3.9-0.3-3.9-0.7 0-0.5 3.5-0.4 3.8 0.1zm3 0.8c0.2 0.4 0.8 0.8 1.2 0.8 0.4 0 0.9 0.2 1 0.4 0.1 0.2 0.6 0.4 1 0.4 0.5 0 0.8 0.2 0.8 0.4 0 0.2 0.3 0.4 0.7 0.4 0.4 0 1.1 0.4 1.7 0.8 0.5 0.4 1.2 0.8 1.5 0.8 0.2 0 0.5 0.1 0.6 0.3 0 0.2 0.7 0.7 1.4 1.3 0.8 0.5 1.3 1 1.2 1.1-0.1 0.1-1.1-0.5-2.2-1.2-2.5-1.9-6.2-3.7-9-4.5-2.3-0.7-2.9-1.2-1.6-1.5 1.2-0.3 1.3-0.3 1.7 0.5zm167.8-0.4c0.1 0.2 0.1 0.6 0 0.8-0.3 0.5-1-0.2-1-0.9 0-0.4 0.7-0.4 1 0.1zm-191.4 1.4c-0.5 0.4-5.2 2.1-5.2 1.8 0-0.2 0.3-0.4 0.7-0.5 0.4-0.2 1.3-0.5 2.1-0.8 1.3-0.6 2.7-0.9 2.4-0.5zm37.8 8.1c3 2.9 5.7 6.4 5.3 6.7-0.1 0.2-0.7-0.4-1.3-1.3-0.6-0.8-2.4-2.8-4-4.4-3.1-3.2-3.1-4 0-1zm-140.4-0.2c1.6 0 1.5 0-0.6 0.5-2.3 0.5-5.5 1.7-6.3 2.3q-0.5 0.4-0.5 0c0-0.3 1.2-1 3-1.7 0.4-0.2 1.2-0.5 1.8-0.7 0.5-0.3 1.7-0.4 2.6-0.4zm17.7 5c0.8 0.7 1.5 1.3 1.7 1.3 0.2 0 0.4 0.3 0.4 0.6 0 0.9-0.6 0.7-1.5-0.3-0.9-1.2-5-4.3-5.6-4.3-0.3 0-0.6-0.2-0.7-0.4-0.6-1 4 1.5 5.7 3.1zm-25.9-1.9c0.2 0-0.7 1.1-2.1 2.5-1.4 1.4-3.1 3.5-3.8 4.7-1 1.7-1.3 1.9-1 1 0.1-0.7 0.6-1.6 1.2-2.2 0.5-0.5 0.9-1.2 0.9-1.5 0-0.3 0.5-0.9 1.1-1.4 0.6-0.5 1.3-1.2 1.7-1.6 0.3-0.4 0.8-0.7 1.1-0.7 0.3 0 0.5-0.2 0.5-0.4 0-0.2 0.2-0.4 0.4-0.4zm154.3 4.4c0.4 0 3 5.6 2.8 5.9-0.2 0.1-2-3.3-3-5.6-0.1-0.2 0-0.3 0.2-0.3zm-125.9 0.4c0.2 0 0.4 0.2 0.4 0.4 0 0.2 0.4 0.7 1 1.3 0.5 0.5 1 1.3 1 1.7 0 0.4 0.3 1.3 0.6 1.9 0.7 1.3 0.8 2.7 0.2 2.7-0.2 0-0.5-0.6-0.6-1.3-0.2-0.7-0.9-2.4-1.5-3.7-0.7-1.3-1.4-2.5-1.4-2.7-0.1-0.2 0-0.3 0.3-0.3zm279.8 1.5c0.4 0.6 0.6 1.2 0.4 1.6-0.3 0.7-0.9-0.4-1-1.9 0-0.4 0.2-0.2 0.6 0.3zm-315.4 3.6c0 0.7-0.7 1.4-1 0.9-0.1-0.2-0.1-0.6 0-0.8 0.3-0.5 1-0.5 1-0.1zm95.5 1.5c-0.2 0.3-0.5 1.3-0.7 2.3-0.7 2.4-0.9 2.6-1.3 1.3-0.2-0.8-0.1-1.4 0.3-1.8 0.3-0.4 0.6-0.9 0.6-1.3 0-0.3 0.1-0.7 0.3-0.8 0.5-0.5 1-0.3 0.8 0.3zm69.3-0.4c0.2 0.1 0.4 0.7 0.4 1.2 0 0.5 0.2 1.1 0.4 1.2 0.2 0.1 0.4 0.8 0.4 1.5 0 1.1-0.1 1.2-0.4 0.5-0.5-1.4-1.2-3.6-1.2-4.2 0-0.2 0.2-0.3 0.4-0.2zm-166 3.6l-0.3 2.4-0.1-1.9c0-1 0.1-2.1 0.2-2.5 0.5-1.2 0.6-0.4 0.2 2zm40.6-1c0.6 0 0.9 3.4 0.3 6-0.4 2.3-0.9 1.2-0.9-2.4 0-2.9 0.1-3.6 0.6-3.6zm54.4 10c0 6.9-0.2 8.6-0.8 6-0.3-1.7-0.3-11.7 0-12.6 0.6-1.5 0.8-0.1 0.8 6.6zm72.7-6.5c0.3 0.9 0.4 12.6 0 13.2-0.2 0.2-0.3-2.8-0.3-6.8 0-3.9 0.1-6.8 0.3-6.4zm-167.6 3c0.2 1.5 0.2 2.3-0.1 2.3-0.2 0-0.4-1.1-0.4-2.5q0-4.4 0.5 0.2zm319.8 1.6c0.1 0.4 0.1 1 0 1.4-0.1 0.4-0.2 0.1-0.2-0.7 0-0.8 0.1-1.1 0.2-0.7zm-279.5 0.5c0 0.8-1.2 3.4-1.5 3.4-0.2 0-0.1-0.9 0.2-2 0.6-1.9 1.3-2.7 1.3-1.4zm-39.6 1c0.2 0.3 0.4 0.9 0.4 1.2 0 0.5-0.1 0.5-0.4 0-0.2-0.3-0.4-0.9-0.4-1.2 0-0.5 0.1-0.5 0.4 0zm1.2 3.3c0.5 0.9 0.8 1.7 0.7 1.8-0.1 0.1-0.3-0.2-0.5-0.7-0.1-0.4-0.4-0.8-0.6-0.8-0.2 0-0.4-0.4-0.4-0.9 0-0.7 0.2-0.6 0.8 0.6zm36.4-0.5c0.6 0 0.5 0.9-0.4 2-0.4 0.6-0.8 1.2-0.8 1.5 0 0.2-0.3 0.5-0.6 0.6-1 0.4-0.7-0.7 0.5-1.9 0.6-0.7 1-1.2 1-1.3-0.1-0.1-0.1-0.3-0.1-0.5 0-0.2 0.2-0.4 0.4-0.4zm-32.6 5.5c1.2 1.2 2.2 2.3 2.1 2.4-0.3 0.2-4.3-3.7-4.3-4.2 0-0.2 1 0.6 2.2 1.8zm29.4 0.1c0 0.4-0.8 1-1.1 0.7-0.1-0.2-0.1-0.4 0.1-0.7 0.3-0.5 1-0.5 1 0zm61 2.6c0.4 1.3 1.3 3.6 2 5.2 1.5 2.8 1.6 3.4 1.1 3.4-0.6 0-3.7-6.7-3.7-8 0-0.4-0.2-0.9-0.4-1-0.2-0.1-0.4-0.8-0.4-1.5 0-1.8 0.6-1 1.4 1.9zm70.9-1.8c0.1 0.8 0 1.4-0.3 1.5-0.2 0.1-0.4 0.5-0.4 0.8 0 1-2.5 6.6-3.3 7.5-0.4 0.4-0.7 1-0.7 1.3 0 0.3-0.2 0.5-0.4 0.5-0.5 0-0.5-0.7-0.1-0.9 0.7-0.5 4-7.8 4.3-9.6 0.1-0.4 0.3-1.2 0.5-1.6 0.2-0.8 0.3-0.7 0.4 0.5zm101.2-0.3c0.1 0.4 0.1 1 0 1.4-0.1 0.4-0.2 0.1-0.2-0.7 0-0.8 0.1-1.1 0.2-0.7zm-258.9 2.2c0.3 0.1 0.6 0.3 0.6 0.5 0 0.2-0.3 0.4-0.6 0.4-0.3 0-0.6-0.3-0.6-0.6 0-0.3 0.2-0.5 0.6-0.3zm21.8 0c0.3 0.2-1.7 1.7-2.3 1.7-0.3 0-0.5 0.2-0.5 0.4 0 0.2-0.4 0.4-0.8 0.4-1.3 0-0.9-0.6 1.3-1.6 1.2-0.6 2.2-0.9 2.3-0.9zm290.3 1c0.1 0.4 0.1 1 0 1.4-0.1 0.4-0.2 0.1-0.2-0.7 0-0.8 0.1-1.1 0.2-0.7zm-309.2 0.6c1.3 0.5 1.4 0.7 0.6 0.8-1 0.2-2.5-0.5-2.5-1.1 0-0.5 0.2-0.5 1.9 0.3zm2.8 0.7c1.3 0.4 1.5 0.5 1.2 0.8-0.4 0.4-2.3-0.1-2.3-0.6 0-0.2 0.5-0.3 1.1-0.2zm11.3 0.4c0 0.4-0.5 0.6-1.7 0.6-1.7 0-1.7-0.5-0.1-0.9 1.5-0.4 1.8-0.3 1.8 0.3zm-6.4 0.2c1.4 0 2 0.2 2 0.5 0 0.4-0.6 0.6-2 0.6-1.5 0-2-0.1-2-0.5 0-0.4 0.6-0.6 2-0.6zm249.5 8.1c0.1 1.5 0.1 3.9 0 5.4-0.1 1.5-0.1 0.3-0.1-2.7 0-3 0-4.2 0.1-2.7zm52.4-1.6c0.1 0.6 0.1 1.6 0 2.2-0.1 0.6-0.2 0.1-0.2-1.1 0-1.2 0.1-1.7 0.2-1.1zm-220.3 1.4c0.8 1 2.4 2.9 3.6 4.3 1.7 1.9 1.9 2.2 0.8 1.4-2.1-1.6-4.7-4.3-5.2-5.6-0.3-0.7-0.7-1.2-0.8-1.2-0.2 0-0.4-0.2-0.4-0.4 0-0.8 0.6-0.3 2 1.5zm59.6-0.7c0.8 0 0.4 1-1 2.4-1.8 1.7-2.2 1.4-0.6-0.4 0.7-0.8 1.2-1.5 1.2-1.7 0-0.2 0.2-0.3 0.4-0.3zm-2.8 4.8q0 0.8-0.8 0.8c-0.4 0-0.8 0.3-0.8 0.6 0 0.4-0.4 0.6-0.9 0.6-0.8 0-0.8-0.1 0.5-1.4 1.6-1.6 2-1.7 2-0.6zm-49.2 3.6c0.9 0.7 1.5 1.4 1.4 1.5-0.1 0.1-0.5-0.1-0.8-0.5-0.4-0.3-1-0.8-1.4-1-0.5-0.2-0.8-0.6-0.8-0.8 0-0.3 0.7 0.1 1.6 0.8zm44.6 0.2c-0.8 0.8-1.7 1.4-1.9 1.4-0.2 0-1.1 0.5-2.1 1.2-1 0.7-1.9 1.2-2.1 1.2-0.6 0-2.5 1-2.5 1.3 0 0.2-0.4 0.3-1 0.3-0.5 0-1.1 0.2-1.2 0.4-0.1 0.2-0.9 0.4-1.7 0.4-1.3 0-1.1-0.2 1.8-1.2 3.5-1.2 6.9-3 9.7-5.1 2.3-1.7 3-1.7 1 0.1zm-129.5-0.5c-0.2 0.5-2.9 1.1-3.3 0.7-0.2-0.1 0.4-0.4 1.3-0.7 2-0.6 2.2-0.6 2 0zm3.1-0.5c0.5 0 1 0.2 1 0.4 0 0.2-0.3 0.4-0.8 0.4-0.4 0-0.9-0.2-1-0.4-0.1-0.2 0.2-0.4 0.8-0.4zm3.7 0.4c1.3 0 5.1 0.8 5.5 1.2 0.2 0.2 0.8 0.4 1.3 0.4 0.5 0 0.9 0.1 0.9 0.3 0 0.2 0.9 0.8 2 1.3 1.1 0.6 2 1.2 2 1.5 0 0.7-0.8 0.6-1.1-0.1-0.1-0.3-0.3-0.5-0.5-0.4-0.1 0.1-0.7-0.2-1.1-0.6-0.5-0.4-1.1-0.8-1.3-0.8-0.3 0-0.8-0.2-1.3-0.5-0.5-0.2-1.3-0.5-1.7-0.6-0.4-0.1-0.9-0.3-1-0.4-0.1-0.2-1-0.4-2-0.4-1-0.1-2-0.3-2.2-0.5-0.2-0.3 0-0.4 0.5-0.4zm-11.1 1.1c0 0.2-1.1 0.7-2.4 1.2-3.5 1.3-3.2 0.5 0.4-1 1.2-0.5 2-0.6 2-0.2zm94.1 2.4c1 0.5 1.1 0.7 0.6 0.8-0.6 0.1-1.9-0.7-1.9-1.3 0-0.1 0.6 0.1 1.3 0.5zm-100.3-0.3c0.3 0 0.6 0.2 0.6 0.4 0 0.2-0.3 0.4-0.6 0.5-0.4 0.2-0.6 0-0.6-0.3 0-0.3 0.3-0.6 0.6-0.6zm255.3 0.9c0.1 0.4 0.1 1.1 0 1.6-0.1 0.5-0.2 0.2-0.2-0.7 0-0.9 0.1-1.3 0.2-0.9zm-149.9 1.6c1.1 0.4 3.2 1 4.6 1.3l2.4 0.6-2-0.2c-2.4-0.2-7-1.6-8.1-2.5-0.8-0.7-1-0.7 3.1 0.8zm-107.8-0.5c0.2 0-0.8 1.1-2.1 2.5-1.4 1.3-2.5 2.6-2.5 2.8 0 0.2-0.2 0.3-0.4 0.3-0.7 0 0.5-1.6 2.6-3.7 1.1-1 2.2-1.9 2.4-1.9zm161.2 1c-1 1-1.8 1.3-1.8 0.7 0-0.2 0.5-0.6 1.1-1 1.6-1 2-0.8 0.7 0.3zm-127.9-0.1c1.3 1 1.8 1.5 1.6 1.7-0.3 0.3-2.3-1.4-2.3-1.9 0-0.2 0.3-0.2 0.7 0.2zm94.5 1.1c-0.3 0.2-1.1 0.4-1.8 0.4-1.2-0.1-1.2-0.1-0.2-0.4 1.5-0.5 2.8-0.5 2 0zm-8.1 0.4c2.9 0 4.1 0.1 3.7 0.4-0.8 0.5-7.5 0.5-7.8 0-0.2-0.3 1.3-0.4 4.1-0.4zm-83.5 1.1c0.8 0.2 1.2 1.7 0.4 1.7-0.3 0-1.2-1.2-1.2-1.7 0-0.1 0.4-0.1 0.8 0zm273.9 1.2c0.1 0.5 0.1 1.3 0 1.8-0.1 0.5-0.2 0.1-0.2-0.9 0-1 0.1-1.4 0.2-0.9zm-271.9 2c0.5 1.1 0.5 1.1-0.4 0.3-0.4-0.4-0.8-0.9-0.8-1.1 0-0.7 0.7-0.2 1.2 0.8zm116.9-0.3q0.5 0.1 0 0.3c-0.3 0.1-0.5 0.4-0.5 0.7 0 0.3-0.3 0.6-0.6 0.7-0.5 0.2-0.5 0.1 0-0.7 0.4-0.6 0.9-1 1.1-1zm-116.3 1.6c0.3 0 1.5 2.5 1.3 2.7-0.2 0.2-1.5-2-1.5-2.5 0-0.1 0.1-0.2 0.2-0.2zm-47.2 2.4c0.7 0 0.6 0.9-0.1 1.1-0.3 0.1-0.5-0.1-0.5-0.5 0-0.3 0.3-0.6 0.6-0.6zm49 0.8c0.2 0 0.4 0.4 0.4 0.8 0 0.5-0.2 0.7-0.4 0.6-0.2-0.1-0.4-0.5-0.4-0.8 0-0.3 0.2-0.6 0.4-0.6zm-49.6 2.4c-0.3 0.9-0.4 0.9-0.4 0.2 0-0.5 0.1-1 0.3-1.1 0.4-0.5 0.5 0 0.1 0.9zm50.4 0.2c0.2 0.1 0.4 0.6 0.4 1.1 0 1-0.8 0.2-0.8-0.8 0-0.3 0.2-0.4 0.4-0.3zm-51.2 3.2c-0.2 1.2-0.3 1.3-0.4 0.5 0-0.6 0.1-1.3 0.2-1.7 0.5-1.1 0.5-0.5 0.2 1.2zm52-0.8c0.2 0.1 0.4 0.6 0.4 1 0 0.5-0.2 0.7-0.4 0.6-0.2-0.1-0.4-0.6-0.4-1 0-0.5 0.2-0.7 0.4-0.6zm266.3 2.1c0.1 0.5-0.1 1.2-0.3 1.6-0.4 0.7-0.4 0.7-0.2 0 0.1-0.4 0.2-1.2 0.3-1.6 0-0.9 0-0.9 0.2 0zm-265.5 1.1c0.2 0.1 0.4 0.6 0.4 1.1 0 1-0.8 0.2-0.8-0.8 0-0.3 0.2-0.4 0.4-0.3zm105.9 0.8c0.1 0.4 0 0.9-0.3 1.1-0.3 0.3-0.4 0.2-0.4-0.4 0-0.4 0.1-0.9 0.3-1.1 0.2-0.1 0.4 0 0.4 0.4zm69.5 0.5c0.3 0.1 0.6 0.4 0.7 0.7q0.2 0.5-0.3 0.3c-0.3-0.1-0.6-0.4-0.7-0.7q-0.2-0.5 0.3-0.3zm-174.6 1.3c0.5 0.8 0.5 1.7 0 1.4-0.2-0.1-0.4-0.6-0.4-1.1 0-0.7 0.1-0.8 0.4-0.3zm-53.6 2.6c0.4 1.8 0.4 2.6 0 2.6-0.2 0-0.4-0.9-0.4-1.9 0.1-1.7 0.1-1.8 0.4-0.7zm55.2 2.4c0.2 0.1 0.4 0.5 0.4 0.8 0 0.4-0.2 0.5-0.4 0.4-0.2-0.1-0.4-0.5-0.4-0.8 0-0.4 0.2-0.5 0.4-0.4zm-54.4 1.2q0.7 1.6 0 1.2c-0.2-0.1-0.4-0.6-0.4-1.1 0.1-0.9 0.1-0.9 0.4-0.1zm55.2 1.2c0.2 0.1 0.4 0.5 0.4 0.8 0 0.4-0.2 0.5-0.4 0.4-0.2-0.1-0.4-0.5-0.4-0.8 0-0.4 0.2-0.5 0.4-0.4zm182.3 0.4c0.3 0.4 0.5 0.7 0.4 0.9-0.3 0.3-1.5-0.6-1.5-1.1 0-0.6 0.4-0.5 1.1 0.2zm-180.7 3.4c0.2 0 0.4 0.3 0.4 0.8 0 0.4 0.2 0.9 0.4 1 0.2 0.1 0.4 0.6 0.4 0.9 0 0.6-1.5-1.7-1.6-2.4 0-0.2 0.2-0.3 0.4-0.3zm-53.6 4.8c0.5 0.8 0.5 2.1 0 1.8-0.2-0.1-0.4-0.7-0.4-1.3 0-0.9 0.1-1 0.4-0.5zm55.8 0.4c0.3 0 1.4 2.6 1.4 3.1 0 0.4-1.6-2.4-1.6-2.8 0-0.2 0.1-0.3 0.2-0.3zm188.9 0.9c0.9 0.9 0.6 1.7-0.3 0.9-0.4-0.4-0.8-0.9-0.8-1.1 0-0.4 0.6-0.4 1.1 0.2zm-243.3 3.5c0.4 1.3 0.9 2.5 1.1 2.6 0.1 0.2 0.3 0.5 0.3 0.9 0 0.4-0.1 0.5-0.3 0.3-0.4-0.5-2.1-5.1-2.1-5.7 0-1.1 0.4-0.3 1 1.9zm160.3 2.9c1.1 1.3 0.8 1.9-0.3 0.6-0.6-0.6-1-1.2-1-1.3 0-0.4 0.5-0.2 1.3 0.7zm-158.5 2.1c0.2 0.1 0.4 0.5 0.4 0.8 0 0.4-0.2 0.5-0.4 0.4-0.2-0.1-0.4-0.5-0.4-0.8 0-0.4 0.2-0.5 0.4-0.4zm58.2 0.8c0.3 0.4 0.6 0.9 0.6 1.2 0 0.2-0.3 0-0.6-0.4-0.3-0.5-0.6-1-0.6-1.2 0-0.2 0.3-0.1 0.6 0.4zm-57.4 1.2c0.2 0.1 0.4 0.6 0.4 0.9 0 0.4 0.2 0.9 0.4 1.2 0.3 0.2 0.4 0.7 0.3 1q-0.2 0.5-0.5-0.4c-0.2-0.5-0.5-0.9-0.6-0.9-0.2 0-0.4-0.5-0.4-1 0-0.6 0.2-0.9 0.4-0.8zm59.2 1.4c0.4 0.4 0.8 1 0.8 1.2 0 0.2 0.2 0.4 0.4 0.4 0.2 0 0.4 0.2 0.4 0.4 0 0.8-0.6 0.4-1.5-1-0.5-0.8-0.9-1.5-0.9-1.6 0-0.1 0.4 0.2 0.8 0.6zm-57.6 2.6c0.2 0.1 0.4 0.4 0.4 0.6 0 0.2 0.4 1.2 0.9 2.2 0.4 1 0.7 1.9 0.6 2.1-0.2 0.1-0.5-0.4-0.8-1.2-0.4-0.8-0.8-1.5-1.1-1.7-0.2-0.1-0.4-0.7-0.4-1.2 0-0.6 0.2-0.9 0.4-0.8zm60.6 1.2c1 1.1 1.3 1.8 0.6 1.8-0.3 0-2-2.1-2-2.6 0-0.4 0.4-0.2 1.4 0.8zm105.9 0.7l1.3 1.3-1.4-0.9c-0.8-0.5-1.4-1-1.5-1.3-0.3-0.7 0.3-0.4 1.6 0.9zm-104.6 1.5c0.3 0 2.9 3.4 2.9 3.9 0 0.4-1.7-1.4-2.6-2.8-0.4-0.6-0.5-1.1-0.3-1.1zm-58.9 3.6c0.2 0 1.4 2.4 1.4 2.8 0 0.4-1.6-1.8-1.6-2.3 0-0.3 0.1-0.5 0.2-0.5zm63.9 2.2q0.7 1.6 1.3 0.6c0.5-0.9 1.1-0.4 0.8 0.8-0.2 0.9-0.1 1.2 0.4 1.2 0.3 0 0.6 0.3 0.6 0.6 0 0.3-0.1 0.6-0.3 0.6-0.4 0-4.1-4.1-4.1-4.5 0-0.7 0.9-0.2 1.3 0.7zm-60.5 4.2c0.9 1.8 1 2 0.4 2-0.3 0-1.6-2.4-1.6-3.2 0-0.8 0.4-0.4 1.2 1.2zm65.8 1.3c0.6 0.3 1 0.7 1 1 0 0.8-0.7 0.6-1.3-0.5-0.6-0.9-0.6-0.9 0.3-0.5zm1.8 2c0.3 0.1 0.6 0.4 0.7 0.7 0.1 0.3 0 0.4-0.3 0.3-0.3-0.1-0.6-0.4-0.7-0.7-0.1-0.3 0-0.4 0.3-0.3zm2.6 2.2c0.3 0.1 0.6 0.3 0.6 0.5 0 0.2 0.4 0.4 0.8 0.4 0.4 0 0.8 0.3 0.8 0.6 0 0.5 2.8 3 3.5 3 0.2 0 0.6 0.5 0.9 1 0.3 0.5 0.6 1 0.8 1 0.1 0 0.7 0.5 1.4 1 0.7 0.6 0.9 0.9 0.6 0.8-0.7-0.4-4.8-3.5-5.7-4.3-0.3-0.3-1.4-1.2-2.4-2-1-0.9-1.9-1.7-1.9-1.9 0-0.2 0.3-0.3 0.6-0.1zm-65.7 2.3c0.6 1 1 1.8 0.8 1.8-0.4 0-2-1.9-2.2-2.8-0.4-1.3 0.2-0.9 1.4 1zm175.4-1c0.2 0 0.6 0.3 0.9 0.6 0.3 0.3 0.3 0.6 0.1 0.6-0.2 0-0.6-0.3-0.9-0.6-0.3-0.3-0.3-0.6-0.1-0.6zm-173.6 4.4c0.3 0 2.1 2.6 2.1 3 0 0.1 0.4 0.6 0.8 1.1 0.4 0.5 0.8 1 0.8 1.2 0 0.6-0.9 0.1-1.4-0.7-0.2-0.4-0.6-1-0.8-1.2-1.5-1.8-1.8-2.3-1.8-2.8 0-0.3 0.1-0.6 0.3-0.6zm180.4 2c0.4 0 3 2.5 2.8 2.7-0.3 0.3-3.1-1.7-3.1-2.2 0-0.3 0.1-0.5 0.3-0.5zm90.9 0.4c0.2 0 0.4 0.3 0.4 0.6 0 0.3-0.2 0.6-0.4 0.6-0.2 0-0.4-0.3-0.4-0.6 0-0.3 0.2-0.6 0.4-0.6zm-191 4.2l1.2 1.1-1.3-0.7c-0.7-0.3-1.4-0.8-1.5-1-0.4-0.7 0.4-0.4 1.6 0.6zm-74 2.2c1.1 1.6 2.4 3.3 2.9 3.9 0.5 0.6 0.9 1.2 0.9 1.4 0 0.2-0.5-0.2-1.1-1-0.6-0.7-1.3-1.4-1.6-1.6-0.3-0.2-0.5-0.6-0.5-0.9 0-0.3-0.4-0.6-0.8-0.6-0.5 0-0.8-0.3-0.8-0.8 0-0.4-0.3-0.9-0.6-1.2-0.3-0.2-0.6-0.8-0.7-1.2-0.4-1.4 0.3-0.8 2.3 2zm77.7-0.2c1 0.6 2.1 1 2.5 1 0.5 0 0.8 0.2 0.8 0.4 0 0.1 1 0.8 2.2 1.4 1.3 0.6 2.2 1.1 2.1 1.2-0.2 0.3-7.6-3.3-9.1-4.3-1.5-1-0.4-0.8 1.5 0.3zm104.5 0.8c0.5 0.6 0.8 1 0.6 1-0.5 0-2.2-1.4-2.2-1.8 0-0.5 0.7-0.1 1.6 0.8zm-95.8 3.4c0.3 0 0.7 0.2 0.8 0.4 0.1 0.2 0 0.4-0.4 0.4-0.3 0-0.7-0.2-0.8-0.4-0.1-0.2 0-0.4 0.4-0.4zm2.1 0.8c0.5 0 0.9 0.2 0.9 0.4 0 0.5-0.4 0.5-1.2 0-0.5-0.3-0.4-0.4 0.3-0.4zm4 1.6c0.5 0 1 0.2 1.1 0.4 0.3 0.5-0.6 0.5-1.4 0-0.5-0.3-0.4-0.4 0.3-0.4zm-86.8 1l0.9 1c0.4 0.6 0.6 1.1 0.4 1.1-0.6 0.2-0.6 0.1-1-1.1zm91.9 0.6c0.5 0 1 0.2 1 0.4 0 0.2-0.4 0.4-0.8 0.4-0.4 0-0.9-0.2-1-0.4-0.2-0.2 0.2-0.4 0.8-0.4zm2.5 0.9c0.8 0 1.5 0.3 1.6 0.6 0.1 0.5-2.1 0-2.7-0.5-0.1-0.2 0.4-0.2 1.1-0.1zm4.1 1.1c0.4 0.3 0.3 0.4-0.5 0.4-0.6 0-1.2-0.2-1.3-0.4-0.3-0.5 1-0.5 1.8 0zm46.8 0.6c0 0.3 0.3 0.6 0.7 0.5 0.4 0 1.3 0 2 0 2.6 0.2 0.9 0.6-2.6 0.7-1.9 0.1-3.7 0.3-4 0.4-0.3 0.1-0.6 0-0.7-0.2-0.3-0.4 0.7-0.8 2.2-0.8 0.7 0 1.3-0.3 1.4-0.6 0.3-0.8 1-0.8 1 0zm-140 3.1c0 0.6-1.1-0.2-1.6-1.1-0.2-0.6-0.6-1-0.8-1-0.2 0-0.4-0.3-0.4-0.7 0-0.6 2.7 2.1 2.8 2.8zm101.9-2.4c0.7 0.8 0.2 1.1-1.3 0.8-2.2-0.3-2.5-0.5-1.6-0.9 1.2-0.5 2.4-0.5 2.9 0.1zm47.3-0.1c1 0 2 0.2 2.4 0.4 0.7 0.5-2.3 0.5-3.4 0-0.6-0.3-0.4-0.3 1-0.4zm-44.2 0.9c1.7 0 4 0.6 3 0.7-1.2 0.2-3.4-0.1-4-0.4q-0.7-0.4 1-0.3zm27.4-0.1c1.3 0.1 1.6 0.1 1 0.4-1.2 0.5-4.2 0.5-3.4 0 0.3-0.2 1.4-0.4 2.4-0.4zm20.9 0c0.4 0 0.7 0.2 0.9 0.4 0.1 0.2 0 0.4-0.4 0.4-0.3 0-0.7-0.2-0.8-0.4-0.2-0.2 0-0.4 0.3-0.4zm-34.5 0.9c4.9 0 7.9 0.1 7.4 0.3-1 0.4-12.8 0.4-14.4 0-0.7-0.2 2.4-0.3 7-0.3zm36.5-0.1c0.7 0 2.7 0.9 2.7 1.3 0 0.4-0.7 0.4-1-0.1-0.2-0.2-0.6-0.4-1-0.4-0.4 0-0.9-0.2-1-0.4-0.2-0.2 0-0.4 0.3-0.4zm119.9 0.7c0.4 0.1 0.8 0.4 0.8 0.7 0 0.3 0.3 0.8 0.8 1.2 0.4 0.4 0.7 0.8 0.6 0.9-0.1 0.1-3-2.6-3-2.9 0-0.1 0.3 0 0.8 0.1zm-271.1 4.4c1.7 1.7 2.9 3.2 2.6 3.3-0.3 0-0.6-0.1-0.7-0.4-0.1-0.3-1.4-1.8-2.9-3.2-1.5-1.5-2.7-2.8-2.7-3 0-0.4-0.2-0.5 3.7 3.3zm154.8-3.5c0.7 0 1.3 0.7 0.9 1.1-0.1 0.1-0.5-0.1-0.9-0.4-0.6-0.6-0.6-0.7 0-0.7zm2.1 1.5c1.3 0.7 3.2 2.4 3 2.6-0.2 0.2-1.1-0.5-2-1.4-1-0.8-1.5-1.4-1-1.2zm3.8 3.4c0.6 0.2 3.8 4.6 3.5 4.8 0 0.1-1-1-2.1-2.4-1-1.4-1.7-2.5-1.4-2.4zm27.2 0.5c0.4 0.4 0.7 0.8 0.6 0.9-0.2 0.2-1.4-0.9-1.4-1.3 0-0.2 0.3 0 0.8 0.4zm-183 2.7c0.5 0.5 1.7 1.7 2.8 2.6 1.1 0.9 1.7 1.7 1.4 1.7-0.3 0-1.2-0.7-2.1-1.6-0.8-0.9-1.7-1.6-1.9-1.6-0.5 0-1.6-1.2-1.6-1.6 0-0.7 0.6-0.4 1.4 0.5zm160.2 2.9c0.2 0.1 0.4 0.5 0.4 0.8 0 0.3 0.2 0.6 0.4 0.6 0.2 0 0.4 0.5 0.3 1.1 0 1-1.4-1.2-1.5-2.4 0-0.2 0.2-0.2 0.4-0.1zm-153 3.5c2.6 2.3 3 2.7 3.4 2.7 0.2 0 0.5 0.3 0.6 0.6 0.2 0.3 0.5 0.6 0.8 0.6 0.6 0 1.2 0.7 0.8 1.1-0.2 0.2-2.9-1.8-4.6-3.4-0.6-0.6-1.4-1.1-1.9-1.3-0.5-0.2-0.9-0.7-0.9-1 0-0.7 0.5-0.5 1.8 0.7zm268.6 2.3c0.2 0 0.4 0.5 0.4 1 0 0.6-0.2 0.9-0.4 0.8-0.2-0.1-0.4-0.6-0.4-1 0-0.5 0.2-0.8 0.4-0.8zm-113.2 1.5c0.4 0.9 0.4 9 0.1 9.6-0.2 0.2-0.3-2-0.3-5 0-2.9 0.1-5 0.2-4.6zm33.5-0.7c0.5 0 1.4 1.2 1.1 1.5-0.2 0.3-1.4-0.6-1.4-1.1 0-0.2 0.1-0.4 0.3-0.4zm-180.6 3.2c0.5 0.5 0.1 1-0.5 0.6-0.2-0.1-0.3-0.4-0.2-0.7q0.3-0.4 0.7 0.1zm184.2 0.3c0.1 0.3-0.1 0.4-0.5 0.3-0.3-0.2-0.6-0.5-0.6-0.7 0-0.5 0.9-0.2 1.1 0.4zm76.5-0.7c0.2 0 0.4 0.3 0.4 0.6 0 0.3-0.2 0.6-0.4 0.6-0.2 0-0.4-0.3-0.4-0.6 0-0.3 0.2-0.6 0.4-0.6zm-259.1 1.6c0.3 0.2 0.9 0.8 1.5 1.2q1 0.8 0.4 0.8c-0.6 0-2.8-1.7-2.8-2.1 0-0.4 0.3-0.4 0.9 0.1zm3.3 2.3c0.3 0.1 0.6 0.3 0.6 0.5 0 0.2-0.3 0.4-0.6 0.4-0.4 0-0.6-0.3-0.6-0.6 0-0.3 0.2-0.5 0.6-0.3zm4.8 3.3c0.6 0 1.6 0.7 1.3 1-0.1 0.1-0.5-0.1-1-0.4-0.4-0.3-0.5-0.6-0.3-0.6zm250.9 1.7c0.1 0.4-0.1 0.7-0.5 0.7-0.4 0-0.6-0.3-0.6-0.8 0-1 0.9-0.9 1.1 0.1zm-114 0.1c0.2 0.2-0.8 3.8-1.2 3.8-0.1 0 0-0.9 0.4-2 0.3-1.1 0.7-1.9 0.8-1.8zm-130.7 1.8c0.5 0.5 0.7 0.7 0.4 0.6-0.4-0.1-0.9-0.3-1.3-0.4-0.4-0.2-0.7-0.5-0.7-0.6 0-0.6 0.6-0.4 1.6 0.4zm4.2 2.3c0.7 0.5 0.7 0.6 0 0.4-0.4-0.2-0.9-0.3-1.1-0.3-0.2 0-0.3-0.2-0.3-0.4q0-0.8 1.4 0.3zm124.9 0.3c0.2 0.2-1.8 4.2-2.2 4.4-0.3 0.1 0.1-0.9 0.8-2.2 0.7-1.3 1.3-2.3 1.4-2.2zm-122.7 0.7c0.2 0.1 0.4 0.3 0.4 0.5 0 0.2-0.2 0.4-0.4 0.5-0.2 0.1-0.4-0.1-0.4-0.5 0-0.4 0.2-0.6 0.4-0.5zm1.3 0.7c0.4 0 2.7 1.2 2.7 1.4 0 0.5-1.1 0.1-2-0.6-0.6-0.4-0.9-0.8-0.7-0.8zm5.2 2.4c0.8 0.5 1 0.8 0.6 0.8-0.4 0-0.8-0.2-0.9-0.4-0.2-0.2-0.6-0.4-1-0.4-0.5 0-0.8-0.2-0.8-0.4 0-0.6 0.6-0.5 2.1 0.4zm2.9 1.2c0.2 0.2 1.5 0.7 3 1.2 3.1 1.1 4 1.8 1.8 1.4-0.9-0.2-1.8-0.6-2.1-0.9-0.3-0.3-0.9-0.5-1.3-0.5-0.4 0-0.9-0.2-1-0.4-0.2-0.2-0.6-0.4-1-0.4-0.5 0-0.8-0.2-0.8-0.4 0-0.5 0.9-0.5 1.4 0zm110.1 0.8c0.2 0.5-1.5 2.1-1.9 1.8-0.1-0.1 0.3-0.7 0.8-1.2 0.5-0.6 1-0.8 1.1-0.6zm-101.9 2.4c0.4 0.3 0.3 0.4-0.5 0.4-0.6 0-1.1-0.2-1.1-0.4 0-0.5 0.8-0.5 1.6 0zm212.3 1.1c0.3 0.2-1.2 1.7-1.7 1.7-0.2 0 0.1-0.4 0.6-0.9 0.5-0.5 1-0.9 1.1-0.8zm-207.7 0.5c0.7 0.3 0.7 0.3-0.1 0.4-0.5 0-1-0.2-1.1-0.4q-0.5-0.7 1.2 0zm2.4 0.8c0.7 0.3 0.6 0.3-0.3 0.4-0.6 0-1.1-0.2-1.1-0.4 0-0.5 0.3-0.5 1.4 0zm2.8 0.8c0.7 0.3 0.7 0.3-0.1 0.4-0.5 0-1-0.2-1.1-0.4q-0.5-0.7 1.2 0zm85.7 0c0.2 0.6-0.2 0.9-0.7 0.6-0.4-0.2-0.4-0.4 0-0.6 0.4-0.2 0.6-0.2 0.7 0zm-82.9 0.8c0.7 0.3 0.7 0.3-0.3 0.4-0.6 0-1.2-0.2-1.3-0.4-0.3-0.5 0.5-0.5 1.6 0zm3.2 0.8c0.6 0.3 0.6 0.3-0.5 0.4-0.7 0-1.4-0.2-1.5-0.4-0.3-0.5 0.9-0.5 2 0zm77 0c0 0.2-0.3 0.4-0.6 0.4-0.4 0-0.6 0.2-0.6 0.4 0 0.2-0.6 0.4-1.3 0.4h-1.3l1.6-0.8c1.9-0.9 2.2-0.9 2.2-0.4zm-73.6 0.8l1 0.3-1 0.1c-0.6 0-1.3-0.2-1.6-0.4-0.8-0.5 0-0.5 1.6 0zm1.4 0.5h0.8c0.4 0 1.2 0.1 1.8 0.3l1 0.3h-1c-0.6 0-1.4-0.1-1.8-0.3zm68 0.3c-0.2 0.3-0.8 0.4-1.5 0.4-1.3 0-1.3-0.1-0.3-0.4 1.4-0.4 2.1-0.4 1.8 0zm-62.2 0.7c1.2 0.1 2.2 0.3 2.3 0.4 0.4 0.3-3 0.1-3.7-0.3q-0.8-0.3 1.4-0.1zm58 0.1c-0.6 0.2-1.7 0.4-2.4 0.4l-1.4-0.1 1.2-0.3c1.7-0.4 4-0.4 2.6 0zm-51.8 0.8c1.1 0.3 1.1 0.4-0.4 0.4-0.9 0-1.9-0.1-2.2-0.4-0.8-0.4 0.7-0.4 2.6 0zm47.3-0.2c-0.3 0.4-9.2 1.4-11.1 1.4-1.1 0 0-0.3 2.6-0.6 2.4-0.2 4.8-0.6 5.4-0.7 1.4-0.2 3.3-0.3 3.1-0.1zm-41.5 0.9c1.8 0.1 3.4 0.3 3.5 0.4 0.4 0.3-5.4 0.1-6.1-0.3-0.5-0.2 0.4-0.2 2.6-0.1zm16.2 0.7c5.1 0 9.4 0.1 9.4 0.3 0 0.8-18.4 1-18.7 0.1-0.1-0.3 2.9-0.4 9.3-0.4zm132.6 1c0.4 0.3 0.3 0.4-0.7 0.4-0.7 0-1.3-0.1-1.3-0.4 0-0.5 1.2-0.5 2 0z"/>
		<path id="path2" fill-rule="evenodd" class="s2" d="m237.3 50.8c3.7 1.3 7.3 2.4 7.7 2.3 0.5-0.1 3.2 0.6 3.4 0.9 0.1 0.2 0.8 0.4 1.4 0.4 0.6 0 1.3 0.2 1.4 0.4 0.1 0.2 0.4 0.3 0.6 0.2 0.2-0.1 0.5 0 0.6 0.2 0.1 0.2 0.5 0.3 0.8 0.1 0.3-0.1 0.6 0 0.6 0.2 0 0.4 2.8 1.4 3.8 1.4 0.3 0 0.6 0.2 0.6 0.4 0 0.2 0.1 0.3 0.3 0.3 0.2-0.1 0.4-0.1 0.6 0 0.2 0.1 0.4 0.1 0.6 0.2 0.8 0.2 2 0.7 2.9 1.2 0.6 0.3 1.2 0.5 1.3 0.3 0.2-0.1 0.5 0.1 0.9 0.4 0.3 0.4 1.3 0.8 2.1 0.9 0.8 0.2 1.6 0.5 1.8 0.7 0.1 0.2 0.7 0.5 1.4 0.5 0.6 0.1 1.3 0.4 1.5 0.7 0.6 0.8 4.6 2.8 5 2.5 0.2-0.1 0.4-0.1 0.4 0.2 0 0.2 0.2 0.4 0.4 0.4 0.1 0 1.3 0.6 2.6 1.4 1.3 0.8 2.4 1.3 2.6 1.2 0.2-0.1 0.4 0.1 0.6 0.4 0.1 0.4 0.4 0.5 0.6 0.4 0.2-0.1 0.4-0.1 0.4 0.1 0 0.5 2.2 1.7 2.5 1.4 0.2-0.1 0.3 0 0.3 0.2 0 0.3 0.2 0.5 0.4 0.5 0.3 0 0.7 0.3 1.1 0.6 0.3 0.3 0.7 0.5 0.9 0.4 0.2-0.1 0.4-0.1 0.4 0.2 0 0.6 3.6 2.8 4.1 2.5 0.2-0.1 0.3 0 0.1 0.2-0.1 0.3 0.2 0.7 0.8 1 0.5 0.2 1 0.6 1 0.7 0 0.2 0.4 0.5 0.9 0.6 0.5 0.2 1.1 0.6 1.4 1.1 0.3 0.4 0.8 0.7 1.1 0.7 0.4 0 1.1 0.5 1.8 1.1 1.5 1.5 2.3 2.1 2.6 2.1 0.2 0 0.6 0.4 1.1 1 0.4 0.6 0.9 1 1.2 1 0.2 0 0.8 0.4 1.4 1 0.6 0.5 1.7 1.5 2.4 2.2 0.7 0.7 1.5 1.2 1.7 1.2 0.2 0 0.4 0.2 0.4 0.4 0 0.2 1.5 1.9 3.4 3.7 5.7 5.4 9.4 9.4 13.1 14.2 1.1 1.3 2.2 2.5 2.6 2.7 0.3 0.1 0.5 0.3 0.3 0.5-0.1 0.2 0.4 1 1.2 1.8 0.7 0.8 1.2 1.5 1.2 1.6-0.1 0.1 0.4 0.7 1 1.4 0.7 0.8 1.2 1.5 1.2 1.7 0 0.2 0.2 0.4 0.4 0.4 0.3 0 0.4 0.1 0.2 0.3-0.1 0.2 0.2 0.8 0.7 1.3 0.5 0.6 1.1 1.5 1.4 2.1 0.3 0.6 0.7 1.1 0.9 1.1 0.2 0 0.4 0.1 0.3 0.3-0.1 0.5 1 2.5 1.3 2.5 0.4 0 2 2.7 2 3.4 0 0.3 0.3 0.6 0.7 0.8 0.3 0.1 0.5 0.3 0.4 0.5-0.3 0.3 0.8 2.5 1.3 2.5 0.2 0 0.3 0.2 0.2 0.5-0.1 0.3 0.2 1.1 0.8 1.8 0.5 0.7 1 1.5 1 1.8 0 0.3 0.4 1.2 1 2 0.5 0.8 0.9 1.5 0.7 1.6-0.1 0.1 0.3 1 0.8 2 0.6 1 0.9 1.9 0.8 2.1-0.1 0.1 0 0.2 0.2 0.2 0.3 0 0.5 0.1 0.4 0.3-0.1 0.7 0.6 2.5 1 2.5 0.2 0 0.3 0.1 0.2 0.2-0.1 0.2 0.2 1.1 0.7 2.1 0.5 1.1 1.2 2.8 1.4 3.8 0.3 1 0.6 1.9 0.8 1.9 0.1 0 0.3 0.4 0.3 0.9 0 0.5 0.2 1.2 0.4 1.7 1.2 2.8 4.7 15.5 5.1 18.6 0.1 0.8 0.5 2.6 0.8 4 3.3 15.5 3.3 42.1-0.2 59.2-1.2 5.7-2.7 12-4 16-0.2 0.5-0.5 1.8-0.8 2.8-0.3 1-0.7 2-0.9 2.2-0.2 0.2-0.3 0.9-0.3 1.5 0 0.6-0.2 1.1-0.3 1.1-0.2 0-0.4 0.2-0.4 0.5-0.1 0.9-2.3 6.9-3 7.9-0.3 0.5-0.9 1.8-1.1 2.7-0.3 0.9-0.7 1.7-0.9 1.7-0.1 0-0.3 0.1-0.2 0.3 0.1 0.3-4.4 9.3-4.9 9.9-0.2 0.2-0.4 0.7-0.4 1 0 0.4-0.4 1.1-0.8 1.6-0.5 0.6-1.3 1.9-1.9 3.1-0.5 1.2-1.2 2.1-1.4 2.1-0.2 0-0.2 0.2-0.1 0.4 0.1 0.2 0.1 0.4-0.1 0.5-0.2 0-0.9 1-1.7 2l-1.3 1.9 3 3c1.6 1.7 3.1 3 3.2 3 0.2 0 1.2 0.9 2.2 2 1 1.1 2 2 2.2 2 0.5 0 10.6 9.9 14.6 14.2 1.6 1.7 3.7 5.7 5 9.4 0.8 2.3 1.6 13.6 1 14-0.1 0.1-0.3 1-0.4 1.9 0 0.9-0.2 1.7-0.4 1.7-0.1 0-0.3 0.5-0.5 1-1.9 7.9-10.8 16.5-19.5 19-1 0.3-1.9 0.7-1.9 0.8 0 0.1-0.7 0.2-1.5 0.1-0.8-0.1-1.3 0-1.2 0.1 0.1 0.2-2.1 0.3-5.2 0.1-3-0.1-5.6-0.1-5.8 0-0.2 0.1-0.3 0-0.3-0.2 0-0.2-0.9-0.6-1.9-0.9-2.2-0.6-8.1-3.6-8.6-4.3-0.2-0.3-0.5-0.5-0.7-0.5-0.3 0-2.1-1.6-7-6.4-1.6-1.6-3-2.8-3.1-2.8-0.2 0-2.1-1.8-4.3-3.9-2.1-2.1-4.6-4.4-5.4-5.1-0.8-0.7-2.7-2.5-4.3-4-1.5-1.5-2.7-2.6-2.7-2.4 0 0.2-0.3 0-0.6-0.5-0.4-0.5-0.9-0.9-1.2-0.9-0.3 0-0.6-0.2-0.6-0.5 0-0.7-2.1-2.7-2.9-2.7-0.4 0-0.7-0.2-0.7-0.5 0-0.4-4.6-5.1-5-5.1-0.1 0-1.5-1.3-3.1-2.9-3.6-3.5-7.5-7.1-7.8-7.1-0.1 0-1-0.9-2-2-1-1.1-1.9-1.9-2-1.9-0.2 0-1.7-1.3-3.4-2.9-6.2-6.1-11.1-10.6-11.7-10.7-0.3-0.1-0.6-0.3-0.6-0.6 0-0.6-1-1.4-1.5-1.2-0.3 0.1-0.5-0.1-0.5-0.4 0-0.3-1.2-1.7-2.7-3.1-1.5-1.3-4.4-4-6.5-5.9-8.5-7.9-12-11.1-15.1-14.1-6.6-6.2-8.6-8-8.9-7.8-0.2 0.1-0.6-0.2-0.8-0.8-0.2-0.5-0.7-1-1-1-0.3 0-0.6-0.3-0.6-0.6 0-0.7-2.3-2.7-2.8-2.4-0.2 0.1-0.4 0-0.4-0.4 0-0.4-0.5-1.2-1.2-1.9-0.7-0.6-1.2-1.3-1.2-1.5 0-0.2-0.3-0.5-0.7-0.8-0.4-0.2-0.5-0.4-0.3-0.4 0.2 0 0-0.4-0.5-0.8-0.5-0.5-0.8-1-0.7-1.2 0.1-0.2 0-0.4-0.2-0.4-0.3 0-0.4-0.1-0.3-0.2 0.1-0.2-0.1-0.9-0.5-1.7-0.5-0.7-0.8-1.6-0.8-1.9 0-0.3-0.2-0.6-0.4-0.6-0.2 0-0.4-0.7-0.4-1.5 0-0.9-0.1-1.7-0.3-1.8-0.1-0.2-0.3-1.3-0.4-2.6-0.1-1.3-0.3-2.4-0.5-2.4-0.5-0.2-0.5-2.6-0.1-3.1 0.2-0.1 0.3-0.8 0.3-1.5 0.1-0.7 0.4-2.4 0.7-3.7 0.4-1.3 0.6-2.5 0.5-2.5-0.1-0.1 0.1-0.5 0.4-0.8 0.4-0.3 0.6-0.8 0.4-1.2-0.1-0.3 0-0.5 0.3-0.5 0.2 0 0.3-0.3 0.2-0.6-0.2-0.3 0-0.8 0.3-1 0.3-0.3 0.6-0.8 0.6-1.2 0-0.4 0.3-1 0.7-1.3 0.8-0.6 3.1-3.5 2.7-3.5-0.1 0 0.4-0.6 1.2-1.4 0.8-0.8 1.4-1.6 1.4-1.8 0-0.3 0.2-0.3 0.4-0.2 0.3 0.2 2.5-1.3 5.1-3.4 0.3-0.2 0.5-0.3 0.5-0.2 0 0.1 0.3 0 0.6-0.4 0.4-0.3 0.8-0.5 1-0.4 0.2 0.1 0.4 0 0.4-0.2 0-0.2 0.2-0.3 0.4-0.2 0.2 0.1 0.6-0.1 1-0.4 0.3-0.4 0.8-0.5 1-0.4 0.2 0.2 0.9 0 1.4-0.4 0.6-0.3 1.2-0.5 1.4-0.4 0.2 0.1 0.4 0.1 0.4-0.1 0-0.2 0.6-0.3 1.3-0.3 0.7-0.1 3.1-0.2 5.4-0.2 2.3-0.1 4.1-0.1 4.2 0.1 0.1 0.1 0.9 0.3 1.9 0.4 1 0.1 2.3 0.4 3 0.7 0.7 0.3 1.6 0.5 2.1 0.5 0.5 0.1 1 0.3 1.1 0.6 0.1 0.3 0.5 0.5 0.8 0.4 0.3-0.2 0.8 0 1.1 0.3 0.4 0.3 0.7 0.5 0.8 0.3 0.2-0.1 0.4 0.1 0.5 0.4 0.2 0.4 0.4 0.6 0.6 0.5 0.2-0.1 0.4-0.1 0.4 0.2 0 0.2 0.3 0.4 0.6 0.4 0.3 0 0.6 0.3 0.7 0.6 0.2 0.3 0.5 0.6 0.8 0.6 0.3 0 0.9 0.5 1.4 1.2 0.5 0.7 1.2 1.2 1.5 1.2 0.3 0 0.6 0.3 0.6 0.6 0 0.3 0.3 0.7 0.7 1 0.4 0.2 1.7 1.3 2.9 2.6 1.2 1.2 2.5 2.3 2.9 2.4 0.4 0.2 0.7 0.5 0.7 0.8 0 0.3 0.1 0.6 0.3 0.6 0.2 0 2.1 1.7 4.3 3.8 2.2 2.1 4.2 3.8 4.5 3.8 0.3 0 0.5 0.2 0.5 0.6 0 0.5 3.2 3.4 3.8 3.4 0.2 0 1.7 1.4 3.2 3.2 1.2 1.3 4.9 4.8 5.2 4.8 0.2 0 2.8 2.5 7.1 6.7 1.2 1.3 2.4 2.3 2.6 2.3 0.2 0 1.2 1 2.4 2.2 1.3 1.4 2.2 2.1 2.4 1.8 0.8-0.8 4.5-8.4 6.6-13.4 0.2-0.6 0.6-1.3 0.7-1.7 0.2-0.4 0.4-0.9 0.4-1.2 0-0.2 0.4-1.2 0.8-2.1 0.4-0.9 0.8-2.1 0.9-2.6 0.1-0.5 0.3-1.4 0.6-1.8 0.2-0.5 0.5-1.7 0.7-2.8 0.1-1 0.4-2.1 0.6-2.4 0.3-0.4 1.2-4.6 1.4-6.7 0.1-0.6 0.2-1.2 0.4-1.5 0.1-0.2 0.2-1.6 0.3-3.1 0-1.5 0.2-2.9 0.4-3.2 0.5-0.6 0.9-18.5 0.5-19.6-0.2-0.4-0.3-1.3-0.2-2 0-0.7-0.2-1.6-0.4-1.9-0.3-0.3-0.4-0.8-0.3-1.2 0.1-0.3 0.1-1.6-0.1-2.9-0.3-1.2-0.4-2.7-0.4-3.2 0-0.5-0.2-0.9-0.5-0.9-0.2 0-0.3-0.4-0.2-0.8 0.1-0.4 0.1-0.9-0.1-1-0.2-0.1-0.3-0.9-0.3-1.8 0-0.9-0.2-1.8-0.4-2.1-0.3-0.3-0.5-1.1-0.6-1.7 0-0.7-0.2-1.4-0.4-1.7-0.2-0.2-0.3-0.7-0.1-0.9 0.1-0.2 0.1-0.4-0.2-0.4-0.2 0-0.3-0.3-0.1-0.6 0.1-0.3 0-0.6-0.2-0.6-0.4 0-0.6-0.7-1.2-3.6-0.1-0.6-0.3-1.2-0.5-1.4-0.2-0.2-0.4-0.7-0.4-1.2 0-0.4-0.4-1.3-0.8-1.8-0.4-0.6-0.8-1.3-0.8-1.7 0-0.5-0.3-1.4-0.7-2.2-3.9-7.9-5.5-10.9-5.7-10.9-0.2 0-0.4-0.4-0.5-0.9-0.3-1.2-4.6-7.6-5.4-8-0.3-0.2-0.4-0.5-0.3-0.7 0.1-0.2-0.1-0.4-0.4-0.5-0.3-0.2-0.6-0.5-0.6-0.8 0-0.4-0.3-0.7-0.6-0.8-0.3-0.2-0.6-0.5-0.6-0.8 0-0.4-0.5-0.9-1-1.3-0.6-0.3-0.9-0.8-0.8-1 0.1-0.2-0.2-0.7-0.8-1.1-0.5-0.5-1-1-1-1.3 0-0.2-0.1-0.4-0.3-0.4-0.2 0-1.1-1-2.1-2.2-1-1.2-2-2.2-2.3-2.2-0.3 0-0.5-0.3-0.5-0.6 0-0.3-0.7-1.1-1.6-1.9-0.9-0.7-2.8-2.3-4.1-3.6-1.4-1.3-2.6-2.3-2.8-2.3-0.2 0-1-0.7-1.9-1.6-0.9-0.9-1.8-1.5-1.9-1.5-0.2 0-0.8-0.4-1.5-1-0.6-0.6-1.3-1-1.5-0.9-0.1 0.2-0.4 0-0.5-0.4-0.2-0.3-0.4-0.5-0.6-0.4-0.2 0.1-0.4-0.1-0.5-0.4-0.2-0.3-0.6-0.6-0.9-0.6-0.3 0-0.6-0.2-0.6-0.5 0-0.2-0.1-0.3-0.2-0.2-0.2 0.1-0.6-0.1-1-0.5-0.5-0.5-1-0.7-1.2-0.6-0.2 0.1-0.4-0.1-0.6-0.4-0.1-0.4-0.4-0.5-0.6-0.4-0.2 0.1-0.7-0.1-1.1-0.5-0.4-0.5-2.2-1.6-4.1-2.5-1.9-0.9-4.1-2-4.9-2.4-0.8-0.5-1.7-0.8-2-0.8-0.3 0-0.8-0.3-1.1-0.6-0.3-0.3-0.7-0.6-1.1-0.6-0.3 0-1.3-0.3-2.2-0.7-2-0.9-5.2-2.1-6.9-2.5-4.6-1.3-6.1-1.7-7.2-2-0.7-0.2-1.9-0.4-2.8-0.5-0.9 0-2.5-0.4-3.6-0.8-1.1-0.4-2-0.6-2.1-0.5-0.1 0.1-0.7-0.2-1.3-0.6-0.6-0.4-1.3-0.8-1.5-0.8-0.2 0-0.7-0.4-1.1-0.8-0.4-0.4-1.1-0.8-1.5-0.8-0.4 0-0.7-0.2-0.7-0.3 0-0.2-1.2-1.6-2.7-3.1-1.5-1.6-3-3.4-3.3-4.1-0.3-0.7-0.7-1.3-0.8-1.3-0.2 0-0.4-0.4-0.4-0.8 0-0.4-0.2-0.8-0.3-0.8-0.2 0-0.5-0.7-0.6-1.5-0.2-0.8-0.5-2-0.8-2.5-0.7-1.2-1-12.8-0.4-12.8 0.4 0 1.5-3.4 1.4-4.1-0.1-0.2 0.1-0.3 0.2-0.3 0.2 0 0.7-0.8 1.1-1.7 0.4-0.9 0.9-1.8 1-1.9 0.1-0.1 0.6-0.7 1-1.4 0.4-0.7 1.1-1.4 1.5-1.7 0.4-0.3 0.7-0.7 0.7-0.9 0-0.7 1.4-2 2.1-2 0.4 0 0.7-0.2 0.7-0.3 0-0.2 0.5-0.6 1.1-0.9 0.6-0.3 1.2-0.8 1.4-1 0.1-0.2 0.4-0.4 0.6-0.4 0.8-0.1 2.1-0.7 2.1-1 0-0.2 0.5-0.4 1.2-0.4 0.6 0 1.3-0.2 1.4-0.4 0.1-0.2 0.8-0.4 1.4-0.4 0.6 0 1.3-0.2 1.4-0.4 0.6-1 8.9-0.5 12.5 0.8z"/>
		<path id="path3" fill-rule="evenodd" class="s3" d="m185.8 71.8c0 18.8-20.9 29.6-36 18.6-15.9-11.7-10-37.2 9.4-40.4 13.8-2.3 26.6 8.2 26.6 21.8z"/>
		<path id="path4" fill-rule="evenodd" class="s4" d="m166.7 49.5c0.4 0.2-1.3 0.3-3.6 0.3-5.8 0.1-9.4 1.3-14.1 4.9-3.2 2.4-7.6 9-7.6 11.5 0 0.6-0.1 0.6-0.4 0.3-0.7-0.6 1-5 2.7-6.9 0.8-0.9 1.3-1.6 1.1-1.6-0.1 0 0.5-0.7 1.5-1.7 3.9-3.7 8.2-6 12.5-6.7 2.5-0.4 7-0.4 7.9-0.1zm63.3-0.2c2 0 2.8 0.1 1.9 0.2-0.9 0.1-2.5 0.1-3.6 0-1-0.1-0.3-0.2 1.7-0.2zm-58.7 1.3c5.7 2.2 11.5 7.6 12.7 11.8 0.1 0.6-0.1 0.4-0.6-0.6-2.4-4.4-7-8.6-11.1-10.2-1.3-0.5-2.8-1.1-3.5-1.4-2.1-0.9-0.4-0.6 2.5 0.4zm53.5-0.6c-0.1 0.2-0.7 0.4-1.3 0.4l-1.1-0.1 1-0.3c1.4-0.5 1.7-0.5 1.4 0zm10.7-0.2c0.5 0.2 1.4 0.5 2.1 0.6 0.7 0.2 2.2 0.7 3.4 1.2 1.2 0.4 2.6 0.8 3.1 0.8 0.5 0 0.9 0.2 0.9 0.4 0 0.5-1.2 0.2-3.8-0.7-0.9-0.3-2.7-0.9-4.1-1.3-1.4-0.5-2.5-0.9-2.5-1 0-0.2 0.4-0.1 0.9 0zm-13.5 1c-0.1 0.2-0.7 0.4-1.3 0.4l-1.1-0.1 1-0.3c1.4-0.5 1.7-0.5 1.4 0zm-3.3 0.9c0.9-0.1 0.9 0-0.1 0.5-0.5 0.3-1.1 0.4-1.3 0.3-0.2-0.1-0.4 0.1-0.5 0.5-0.2 0.3-0.5 0.6-0.8 0.6-0.2 0-0.8 0.4-1.3 0.8-0.5 0.5-1.1 0.8-1.3 0.7-0.2 0 0.7-0.8 2-1.7 1.3-0.9 2.8-1.7 3.3-1.7zm36.8 4.2c2.1 0.8 2.9 1.4 1.1 0.9-0.8-0.3-1.7-0.6-2.1-0.7-0.4-0.1-0.7-0.4-0.7-0.5 0-0.2 0.8-0.1 1.7 0.3zm-44.2 1.1c0.1 0.1-0.3 0.8-1 1.5-0.7 0.6-1.3 1.3-1.3 1.5 0 0.2-0.2 0.6-0.5 0.9-0.3 0.3-0.9 1.3-1.3 2.2-0.4 0.9-0.9 1.7-1.1 1.7-0.1 0-0.3 0.1-0.2 0.3 0.1 0.6-1 4.1-1.3 4.1-1.1 0 2.4-7.7 4.8-10.5 1-1.1 1.8-1.8 1.9-1.7zm48.7 0.4c0.8 0.3 1.5 0.6 1.7 0.6 1.2 0.4 2.5 1.1 2.3 1.3-0.2 0.2-0.8 0-1.4-0.3-0.9-0.5-2.1-1-2.9-1.2-0.2-0.1-0.4-0.1-0.6-0.2-0.2-0.1-0.4-0.1-0.6 0-0.2 0-0.3-0.2-0.3-0.4 0-0.5 0.2-0.5 1.8 0.2zm6.5 2.5c1 0.3 1.7 0.7 1.4 0.8-0.7 0.2-3.3-0.7-3.3-1.1 0-0.2 0.9-0.1 1.9 0.3zm9 4.1c0.9 0.5 1.5 1.2 0.9 1.2-0.5 0-4.6-2.2-4.6-2.5 0-0.3 1.1 0.1 3.7 1.3zm2.8 1.6c0.5 0 3.9 2 4.1 2.5 0.3 0.4-2.4-1-3.6-1.9-0.4-0.3-0.7-0.6-0.5-0.6zm-137.4 2c0.1 0.3 0 0.7-0.3 0.9-0.3 0.3-0.4 0.3-0.4-0.2 0-0.3 0.1-0.7 0.3-0.9 0.2-0.1 0.4 0 0.4 0.2zm143.9 1.5c0.3 0.1 0.6 0.3 0.6 0.5 0 0.2 0.2 0.4 0.5 0.3 0.2-0.1 0.5 0.1 0.6 0.5 0.1 0.4-0.1 0.3-1-0.2-0.7-0.4-1.3-0.9-1.3-1.1 0-0.1 0.3-0.2 0.6 0zm-144.3 1.6c0.1 0.7 0.1 2 0 2.8-0.1 0.8-0.2 0.2-0.2-1.3 0-1.5 0.1-2.2 0.2-1.5zm45.6 0.4c0.1 0.5 0.1 1.4 0 2-0.1 0.6-0.2 0.2-0.2-0.9 0-1.1 0.1-1.6 0.2-1.1zm18-0.1c0.2 2 0.3 9.7 0.1 9.6-0.5-0.3-0.8-5.5-0.5-7.9 0.1-1.4 0.3-2.1 0.4-1.7zm88.7 3.3c0.1 0.4-0.2 0.3-1.1-0.2-0.7-0.5-1.4-1.1-1.4-1.3-0.3-0.7 2.2 0.8 2.5 1.5zm1.6 1c0.5 0.2 1 0.6 1 0.8 0 0.4-1.4-0.3-1.8-0.9-0.1-0.2 0.2-0.2 0.8 0.1zm-153.8-0.1c0.2 0 0.4 0.5 0.4 1 0 0.6-0.2 0.9-0.4 0.8-0.2-0.1-0.4-0.6-0.4-1 0-0.5 0.2-0.8 0.4-0.8zm45.2 0.2c0.2 0.1 0.4 0.5 0.4 0.8 0 0.3-0.2 0.7-0.4 0.8-0.2 0.1-0.4-0.2-0.4-0.8 0-0.6 0.2-0.9 0.4-0.8zm-0.4 2.5c0.4 0.7 0.1 2.1-0.5 2.1-0.2 0-0.3-0.3-0.1-0.6 0.1-0.4 0.2-1 0.2-1.3 0-0.6 0.1-0.6 0.4-0.2zm112.8 0.1c0.2 0 0.4 0.2 0.4 0.4 0 0.2 0.3 0.4 0.7 0.5 0.6 0.2 0.6 0.2 0 0.3-0.3 0-0.8-0.3-1.1-0.6q-0.5-0.6 0-0.6zm-155.4 4.1c0.5 1 1.3 2.4 1.8 3.1 0.5 0.7 0.8 1.4 0.6 1.5-0.2 0.2-1.6-1.5-1.5-1.9 0-0.1-0.3-0.6-0.7-1.1-0.5-0.4-0.9-1.4-1-2.2-0.1-1.3-0.1-1.3 0.8 0.6zm40.7 0.9c-6 12.3-24.8 16.3-34.7 7.4-0.4-0.4-1-0.8-1.2-0.9-0.2 0-0.4-0.2-0.3-0.4 0-0.1-0.3-0.5-0.7-0.9-0.4-0.4-0.8-0.9-0.8-1.2 0-0.2 0.3 0 0.6 0.5 1.7 2.4 7.3 5.6 11.8 6.7 9.4 2.3 20.5-2.7 24.9-11.2 1.6-3.2 2-3.1 0.4 0zm21-1.6c0.5 0.2 1.5 3.8 1.2 4.1-0.2 0.1-1.5-3.5-1.5-4.2 0-0.1 0.2-0.1 0.3 0.1zm100 1.4c0.2 0 0.7 0.4 1.1 0.8 0.4 0.4 0.5 0.8 0.3 0.8-0.2 0-0.7-0.4-1.1-0.8-0.4-0.4-0.5-0.8-0.3-0.8zm3.9 3.3l0.8 0.8-1.1-0.7c-0.6-0.4-1.1-0.8-1.1-0.8 0-0.5 0.8-0.1 1.4 0.7zm-101.5 1.5c0.4 0 1.4 2 1.1 2.3-0.1 0.1-0.4-0.4-0.8-1.1-0.3-0.6-0.5-1.2-0.3-1.2zm105.1 1.6c0.1 0.1 1.5 1.5 3.2 3 1.7 1.5 3.3 3.2 3.5 3.6 0.2 0.4-0.7-0.2-2-1.5-1.2-1.2-2.9-2.8-3.6-3.4-0.7-0.7-1.3-1.4-1.3-1.5 0-0.2 0.1-0.3 0.2-0.2zm-103.2 1.6c0.3 0 5 4.9 4.8 5.1-0.3 0.3-2.3-1.6-3.9-3.6-0.6-0.8-1.1-1.5-0.9-1.5zm7.2 6.4c0.7 0.8 0.7 0.8-0.5 0.2-0.7-0.4-1.3-0.7-1.3-0.8 0-0.5 1.2-0.1 1.8 0.6zm105.8 1.8c0.3 0.4-0.1 0.2-0.9-0.6-0.8-0.7-1.5-1.5-1.5-1.7 0-0.4 1.4 1 2.4 2.3zm2.8 3.2c3.5 3.7 4 4.3 4.4 5.2 0.3 0.4 0 0.3-0.6-0.4-4.1-4.7-5.3-6.1-5.6-6.6-0.2-0.3 0.6 0.5 1.8 1.8zm-96.1-0.8c0.2 0.2 0 0.2-0.4 0.1-0.4-0.2-1.4-0.3-2.1-0.3-0.8 0-1.4-0.2-1.4-0.3 0-0.4 3.5 0 3.9 0.5zm1.5 0.3c0.4 0 1.2 0.1 1.6 0.3 1 0.4 0 0.4-1.4 0-0.8-0.3-0.8-0.3-0.2-0.3zm102.5 10.3c0.2 0 0.6 0.3 0.9 0.6 0.3 0.3 0.3 0.6 0.1 0.6-0.2 0-0.6-0.3-0.9-0.6-0.3-0.3-0.3-0.6-0.1-0.6zm4 5.6c0.2 0 0.7 0.4 1.1 1 0.8 1.3 0.2 1.3-0.7 0-0.4-0.6-0.6-1-0.4-1zm-69.7 1c0.6 0.4 1 0.9 1 1.1 0 0.2-0.4 0-1-0.3-0.5-0.4-1-0.9-1-1.1 0-0.2 0.5 0 1 0.3zm3.2 2.4c0.8 0.6 1.4 1.3 1.4 1.5 0 0.2-0.6-0.1-1.4-0.7-0.8-0.6-1.4-1.3-1.4-1.5 0-0.2 0.6 0.1 1.4 0.7zm69-0.2c0.5 0.5 0.7 1 0.6 1.2-0.3 0.2-1.4-1.2-1.4-1.8 0-0.2 0.4 0 0.8 0.6zm1.8 2.6c0.7 1.1 0.7 1.4 0.3 1.4-0.2 0-0.6-0.5-1-1.2-0.8-1.4-0.3-1.6 0.7-0.2zm-68.4-0.2c0.2 0 1.4 0.9 2.6 2 1.2 1.1 2 2 1.8 2-0.2 0-1.4-0.9-2.6-2-1.2-1.1-2-2-1.8-2zm7.6 6.5c1.2 1.1 1.2 1.1-0.7-0.1-1-0.7-1.9-1.4-1.9-1.7 0-0.4 0.7 0.1 2.6 1.8zm64.1-0.1c0.4 0 1.4 2 1.1 2.3-0.1 0.1-0.4-0.4-0.8-1.1-0.3-0.6-0.5-1.2-0.3-1.2zm-62.5 2c0.5 0.2 3.6 3.6 3.3 3.6-0.3 0-2.2-1.8-3.1-3-0.3-0.4-0.4-0.7-0.2-0.6zm64.1 0.8c0.4 0 1.3 1.8 1.3 2.3 0 0.4-1.6-1.5-1.6-1.9 0-0.2 0.2-0.4 0.3-0.4zm2.5 4.4c1 1.8 1 2.5 0 1-0.4-0.7-0.8-1.5-0.8-1.8 0-0.3 0.4 0 0.8 0.8zm-61.7 0.4c0.2 0 0.7 0.4 1.1 0.8 0.4 0.4 0.6 0.8 0.5 0.8-0.2 0-0.7-0.4-1.1-0.8-0.4-0.4-0.6-0.8-0.5-0.8zm63.9 4.5c1.5 2.9 2.2 5.1 1.8 5.1-0.3 0-1-1.9-0.9-2.5 0.1-0.2-0.1-0.3-0.4-0.3-0.2 0-0.3-0.1-0.2-0.2 0.1-0.2-0.2-1.1-0.7-2-0.6-1-1-1.9-1-2 0-0.6 0.5 0 1.4 1.9zm-53.6 9.3c0.6 0.9 1 1.8 1 2 0 0.2-0.4-0.3-1-1.2-0.5-0.9-1-1.8-1-2 0-0.2 0.5 0.3 1 1.2zm58.2 2c0.2 0.4 0.3 1.1 0.3 1.4q0 0.6-0.3-0.2c-0.2-0.4-0.3-1.1-0.3-1.4q0-0.6 0.3 0.2zm0.8 2.4c0.2 0.1 0.4 0.6 0.5 1.2 0.1 0.5 0.1 0.9-0.1 0.8-0.2-0.1-0.4-0.6-0.5-1.2-0.1-0.5-0.1-0.9 0.1-0.8zm-52.8 7.4c0 0.3-0.7-0.9-1.6-2.8-0.9-1.8-1.6-3.4-1.6-3.5 0.1-0.5 3.2 5.7 3.2 6.3zm54.4-2.4c0.5 1.2 0.7 2.2 0.6 2.3-0.1 0.2-1.4-3.5-1.4-4.1 0-0.2 0.4 0.6 0.8 1.8zm-52.8 6c0 0.3-0.3 0-0.6-0.7-0.3-0.8-0.6-1.5-0.6-1.6 0-0.6 1.2 1.7 1.2 2.3zm1 2.2c0.3 0.5 0.6 1.2 0.6 1.6q0 0.8-0.6-0.5c-0.3-0.8-0.6-1.5-0.6-1.6 0-0.1 0.3 0.1 0.6 0.5zm55 3c0.4 1.4 0.4 2.4 0 1.4-0.2-0.4-0.3-1.2-0.3-1.6 0-0.6 0-0.6 0.3 0.2zm-54.1-0.3c0.5 0.4 0.9 1.9 0.5 1.9-0.2 0-0.4-0.2-0.4-0.4 0-0.2-0.1-0.6-0.3-1q-0.2-0.7 0.2-0.5zm55 5c0.2 0.2 0.3 0.8 0.2 1.4-0.1 0.8-0.2 0.7-0.3-0.4-0.2-0.8-0.1-1.2 0.1-1zm-51.8 5.9c0.6 0.6 1 2.6 0.5 2.6-0.2 0-0.4-0.3-0.4-0.8 0-0.4-0.1-1.1-0.3-1.5q-0.2-0.7 0.2-0.3zm53.6 3.9c0.1 0.4 0.1 1 0 1.4-0.1 0.4-0.2 0.1-0.2-0.7 0-0.8 0.1-1.1 0.2-0.7zm-52 3.9c0.2 0.3 0.5 1.6 0.6 2.8 0.2 1.2 0.1 1.9-0.1 1.6-0.1-0.3-0.4-1.6-0.6-2.8-0.1-1.3-0.1-2 0.1-1.6zm0.9 6.2c0.2 0.1 0.4 0.9 0.4 1.7-0.1 1.6-0.7 0.6-0.8-1.2 0-0.4 0.2-0.6 0.4-0.5zm52.3 1.7c0.1 0.7 0.1 2 0 2.8-0.1 0.8-0.2 0.2-0.2-1.3 0-1.5 0.1-2.2 0.2-1.5zm-51.9 1.9c0.2 0.1 0.4 3.1 0.4 6.5-0.1 7.8-0.3 7.5-0.5-0.6-0.1-3.5-0.1-6 0.1-5.9zm-76.6 13.1c0.2 0.1-1.2 0.3-3.1 0.3-2.3 0-3.1-0.1-2.7-0.4 0.7-0.5 5.5-0.4 5.8 0.1zm-7.4-0.1c0.8 0 0.9 0.1 0.4 0.4-0.3 0.2-1 0.4-1.6 0.4-0.8 0-0.9-0.1-0.4-0.4 0.3-0.2 1.1-0.4 1.6-0.4zm10.1 0.2c1.7 0.3 2.2 0.5 1.9 0.7-0.4 0.3-3.6-0.2-3.6-0.6 0-0.2 0.7-0.3 1.7-0.1zm-14.3 1.2c-0.9 0.7-1.4 0.8-1.4 0.2 0-0.2 0.3-0.4 0.7-0.5 1.3-0.4 1.5-0.3 0.7 0.3zm17.4-0.4c1.9 0.6 2.9 1 2.7 1.2-0.2 0.3-2.8-0.6-3.3-1.1q-0.4-0.4 0.6-0.1zm70.8 0.4c0.5 0.3 0.1 5-0.5 5.6q-0.4 0.4-0.2-1c0.2-0.7 0.3-2.1 0.3-3.1 0-1.1 0.2-1.7 0.4-1.5zm-67 0.8c0.3 0.2 0.6 0.5 0.6 0.7 0 0.5-0.9 0.2-1.1-0.4-0.1-0.3 0.1-0.4 0.5-0.3zm-26.3 1.2c-0.3 0.3-0.6 0.4-0.8 0.4-0.1-0.1-0.3-0.1-0.4 0.1-0.1 0.3-2.7 2.2-2.7 2 0-0.4 1.5-1.8 2.6-2.4 1.5-0.8 2-0.9 1.3-0.1zm145.2 0.7c0.1 0.8 0.1 2.2 0 3-0.1 0.8-0.2 0.2-0.2-1.5 0-1.7 0.1-2.3 0.2-1.5zm-150.1 2.7c-0.8 0.9-1.4 1-1.4 0.4 0-0.2 0.4-0.6 0.9-0.8 1.3-0.5 1.3-0.5 0.5 0.4zm39.5 1.3c0.4 0.9 0.4 0.9-0.4 0.1-0.5-0.4-0.9-0.9-0.9-1.1 0-0.5 0.7 0 1.3 1zm57.8 1.5c0.4 0 0 3.9-0.5 4.3-0.2 0.2-0.2-0.4-0.1-1.3 0.2-0.9 0.3-1.9 0.3-2.3 0-0.4 0.1-0.7 0.3-0.7zm52.4 0.5c0.1 0.4 0.1 1.1 0 1.6-0.1 0.5-0.2 0.2-0.2-0.7 0-0.9 0.1-1.3 0.2-0.9zm-155.5 2.3c0.5 0-0.5 1.5-1.1 1.8q-0.5 0.2 0.1-0.8c0.4-0.6 0.9-1 1-1zm49.8 0c0.2 0 1.1 0.7 2 1.7 0.9 0.9 1.2 1.4 0.8 1.2-0.4-0.2-1.3-1-2-1.7-0.6-0.6-1-1.2-0.8-1.2zm52.8 2.1c0.3 0.3-1 6.5-1.5 6.9q-0.4 0.4-0.2-0.4c0.1-0.4 0.4-1.9 0.7-3.2 0.2-1.3 0.5-2.7 0.6-3 0.1-0.3 0.3-0.4 0.4-0.3zm-48.5 1.9c0.3 0 2.4 1.8 4.6 4 2.3 2.2 4 4 3.8 4-0.1 0-1.4-1.1-2.8-2.4-1.4-1.4-3.4-3.2-4.3-4-1-0.9-1.6-1.6-1.3-1.6zm-57.6 2.4c0.2 0 0.3 0.3 0.1 0.6-0.1 0.4-0.2 0.7-0.2 0.8 0 0.1-0.2 0.2-0.4 0.2-0.2 0-0.2-0.4-0.1-0.8 0.1-0.4 0.4-0.8 0.6-0.8zm-0.5 2.1c0 0.1-0.3 1.1-0.6 2.3-0.5 2.2-0.8 1.3-0.3-1.2 0.1-0.8 1-1.9 0.9-1.1zm104.6 2.3c0.3 0-0.2 2.4-0.7 3.3-0.6 1.2-0.7 0.6-0.3-0.9 0.3-0.8 0.5-1.6 0.6-1.9 0.1-0.3 0.3-0.5 0.4-0.5zm-36.7 2.1c0.4 0.4 1.3 1.2 2 1.7 0.7 0.6 1.2 1.2 1.1 1.3-0.2 0.3-3.8-2.7-3.8-3.2 0-0.2 0.3-0.1 0.7 0.2zm-69.4 2.2c0.4 0.4 0.4 0.6 0 1-0.4 0.4-0.5 0.2-0.5-0.5 0-0.7 0.1-0.9 0.5-0.5zm104.9 0.1c0.3 0-0.9 3.7-1.4 4.2-0.4 0.3-0.1-0.8 1-3.7 0.1-0.3 0.3-0.5 0.4-0.5zm-30.4 2.6l1.2 1c1.6 1.3 5 4.8 5 5 0 0.2-0.2 0-0.5-0.3-0.3-0.3-1.4-1.2-2.3-2.1-1-0.9-2.2-2.1-2.6-2.6zm-74.7 1.4c0.4 0 1 4 0.7 4.3-0.3 0.3-0.5-0.1-0.8-2.2-0.1-1.2-0.1-2.1 0.1-2.1zm157.5 1.3c0.1 0.1 0.1 0.7-0.1 1.4-0.1 0.7-0.3 1.2-0.4 1.1-0.1-0.1-0.1-0.7 0.1-1.4 0.1-0.7 0.3-1.2 0.4-1.1zm-156.6 3.7c0.2 0.1 0.4 0.8 0.4 1.5-0.1 1.4-0.7 0.5-0.8-1.1 0-0.4 0.2-0.6 0.4-0.4zm82.8 1.7c2.1 2.2 2.1 2.7 0 0.7-0.9-0.9-1.6-1.8-1.6-2 0-0.2 0.7 0.3 1.6 1.3zm17.1 0.6c0.1 0.1-0.2 0.9-0.7 1.7-0.9 1.9-1.1 1.6-0.1-0.4 0.3-0.8 0.7-1.4 0.8-1.3zm54.9 1.7c-0.2 0.6-0.3 0.9-0.4 0.5 0-0.4 0.1-1 0.2-1.3 0.5-1.1 0.6-0.5 0.2 0.8zm-152.7 2.2c0.4 0.6 0.5 1.2 0.3 1.2-0.2 0-1.2-1.8-1.2-2.3 0-0.4 0.4 0 0.9 1.1zm86.5 1.1l1.5 1.9-1.6-1.6c-1-0.9-1.7-1.7-1.7-1.9 0-0.6 0.3-0.3 1.8 1.6zm9.7-1.4c0.1 0.2-1.9 4.3-2.1 4.3-0.2 0 0.3-1.5 1.2-3.2 0.4-0.7 0.8-1.2 0.9-1.1zm-5.7 4.8c1.1 1.1 2 1.8 2.3 1.6q0.5-0.3 0 0.3c-0.5 0.5-4.1-2.4-4.1-3.4 0-0.2 0.8 0.4 1.8 1.5zm-87.5 0.5c0.1 0.3 0.7 1.1 1.3 1.8 0.7 0.6 1.2 1.3 1.2 1.6 0 0.3-0.2 0.2-0.5-0.2-0.2-0.5-1-1.4-1.8-2-0.7-0.6-1.3-1.3-1.3-1.5 0-0.6 0.8-0.4 1.1 0.3zm147.3 0.8c-0.3 1.1-0.3 1.1-0.4 0.1 0-0.5 0.1-1.1 0.3-1.3q0.7-0.7 0.1 1.2zm-1 2.2c0.1 0.1-0.2 1.2-0.6 2.4-0.4 1.2-0.8 2.2-0.8 2.3 0 0.1-0.1 0.1-0.2 0-0.1-0.1 0.2-1.2 0.6-2.4 0.4-1.1 0.8-2.2 0.8-2.3 0-0.1 0.1-0.1 0.2 0zm-142.7 1.1c1 0.6 2.3 2 2 2.3-0.3 0.3-2.7-1.8-2.7-2.3 0-0.2 0.3-0.2 0.7 0zm8.5 7.9c1 1 1 1.1 0.1 0.6-0.5-0.3-0.9-0.6-0.9-0.9 0-0.2-0.3-0.5-0.7-0.6-0.9-0.3-2.5-1.8-2.5-2.2 0-0.5 2.6 1.6 4 3.1zm131.4-1.8c0.1 0.2-0.2 1.2-0.8 2.4-1 2.2-1 1.3 0.1-1.2 0.3-0.7 0.6-1.3 0.7-1.2zm-129.4 3.7c1.2 0.7 2.9 2.7 2.7 2.9-0.1 0.1-1-0.7-1.9-1.7-1.1-1.2-1.4-1.6-0.8-1.2zm127.2 1.1c0.5 0 0.5-0.1-0.4 1.9-0.5 1-0.9 1.7-1.1 1.5-0.1-0.1 0.2-0.8 0.6-1.5 0.3-0.7 0.6-1.5 0.6-1.6-0.1-0.2 0.1-0.3 0.3-0.3zm-122.2 3.8l1.3 0.9c1.3 0.9 1.9 1.6 1.6 1.9-0.1 0.1-0.8-0.5-1.5-1.3zm119.7 1.9c0.1 0.1-0.6 1.5-1.5 3.1-2 3.6-2.2 3.1-0.2-0.6 0.8-1.5 1.5-2.6 1.7-2.5zm-113.1 3.8c0.6 0.5 1.2 1.1 1.2 1.3 0 0.3-0.6 0-1.2-0.7-0.7-0.6-1.2-1.2-1.2-1.3 0-0.1 0.5 0.3 1.2 0.7zm2.2 2.4c0.2 0.1 1.5 1.2 3 2.5 2.7 2.6 1.8 2.1-1.4-0.8-1.1-0.9-1.8-1.7-1.6-1.7zm107.1 0.8c0.2 0 0 0.5-0.4 1.1-0.5 0.6-0.9 1.5-1.1 1.9-0.1 0.4-0.4 0.6-0.5 0.5-0.1-0.1 0.2-1 0.7-1.8 0.5-0.9 1.1-1.7 1.3-1.7zm-3.6 6c0.2 0 0 0.5-0.5 1.2-0.5 0.6-0.8 1.3-0.8 1.5 0 0.2-0.4 0.7-0.8 1-1.1 1-1 0.6 0.5-1.7 0.7-1.1 1.4-2 1.6-2zm-92.3 3.3c0.6 0.7 0.8 1 0.4 0.7-0.5-0.4-1.1-0.8-1.5-0.9-0.4-0.1-0.7-0.4-0.7-0.7 0-0.7 0.6-0.4 1.8 0.9zm91.5 2.7c0.2 0 1.3 0.9 2.4 2 1.1 1.1 1.9 2 1.6 2-0.2 0-1.2-0.9-2.3-2-1.1-1.1-1.9-2-1.7-2zm-86.6 2.1c0.7 0.2 6.1 5.3 6.1 5.6 0 0.4-1.3-0.7-3.3-2.8-0.7-0.7-1.4-1.3-1.6-1.3-0.4 0-1.5-1-1.5-1.4 0-0.1 0.1-0.2 0.3-0.1zm93.1 3.9c0.3 0 0.9 0.5 1.4 1 0.5 0.6 0.7 1 0.5 1-0.2 0-0.8-0.4-1.3-1-0.5-0.5-0.8-1-0.6-1zm-86 2.7l1.1 0.8c0.6 0.4 1.1 0.9 1.1 1 0 0.5-0.2 0.4-1.3-0.7zm89.9 0.9c0.4 0 2.4 2 2.3 2.2-0.1 0.1-0.7-0.4-1.4-1-0.6-0.7-1-1.2-0.9-1.2zm-80.2 7.7c0.8 0.9 1.2 1.4 0.7 1.1-1.3-1-2.6-2.1-2.6-2.5 0-0.5 0.2-0.4 1.9 1.4zm90.5 1.8c2 2.1 3.6 4 3.6 4.2 0 0.2-0.6-0.3-1.4-1.2-0.8-0.9-2.4-2.6-3.6-3.8-1.2-1.1-2.2-2.2-2.2-2.5 0-0.2 1.7 1.3 3.6 3.3zm-88.3 0.5c0.2 0 0.7 0.4 1.2 0.9 0.6 0.5 2.2 2 3.7 3.4 1.5 1.4 2.6 2.5 2.4 2.5-0.2 0-2-1.5-4-3.4-1.9-1.9-3.4-3.4-3.3-3.4zm94.1 7.5c1.1 2.3 0.7 2-0.6-0.4-0.6-1.3-1.2-2.5-1.1-2.6 0-0.4 1 1.4 1.7 3zm-84.7 1c0.7 0.8 0.7 0.8-0.1 0.3-0.5-0.2-1-0.6-1.2-0.8-0.4-0.8 0.5-0.4 1.3 0.5zm4.7 4.7c0.5 0 1.8 1.2 1.8 1.6 0 0.2-0.2 0.3-0.6 0.1-0.3-0.1-0.6-0.4-0.6-0.7 0-0.3-0.2-0.6-0.5-0.7-0.2-0.2-0.3-0.3-0.1-0.3zm82.6 1.2c0.5 0 0.5 0.8 0 1.6-0.3 0.5-0.3 0.4-0.4-0.5 0-0.6 0.2-1.1 0.4-1.1zm-78.3 2.3c1.2 1.1 1.4 1.7 0.8 1.7-0.2 0-0.5-0.4-0.6-0.8-0.1-0.5-0.6-1-1-1.1-0.5-0.1-0.9-0.4-0.9-0.6 0-0.6 0.6-0.3 1.7 0.8zm78.7 0.6c0.4 0.3 0.5 6.8 0 7.5-0.2 0.4-0.3-0.7-0.4-3.5 0-2.3 0.2-4.1 0.4-4zm-73.6 4.1c0.9 0.9 1.6 1.7 1.6 1.9 0 0.2-0.7-0.3-1.6-1.2-0.8-0.8-1.6-1.6-1.6-1.8 0-0.2 0.8 0.3 1.6 1.1zm4.3 4.1c0.5 0.3 0.9 0.7 0.9 0.9 0 0.6-0.2 0.5-1-0.5-0.8-0.8-0.8-0.8 0.1-0.4zm68.9 0.5c0.3 0 0.4 0.3 0.4 0.6 0 0.3-0.1 0.6-0.4 0.6-0.2 0-0.4-0.3-0.4-0.6 0-0.3 0.2-0.6 0.4-0.6zm-66.1 2.1c0.9 0.7 2.1 1.9 2.8 2.6 0.8 0.6 1.3 1.3 1.3 1.5 0 0.1-0.2 0-0.5-0.3-0.3-0.3-1.5-1.4-2.8-2.5-1.2-1-2.3-2.1-2.3-2.3 0-0.3 0.7 0.2 1.5 1zm5.2 5.1c0.3 0 0.7 0.3 0.9 0.6 0.3 0.3 0.4 0.6 0.1 0.6-0.2 0-0.6-0.3-0.9-0.6-0.2-0.3-0.3-0.6-0.1-0.6zm2.7 2.4c0.5 0 5.4 4.8 4.9 4.8-0.1 0-1.4-1.1-2.8-2.4-1.3-1.3-2.3-2.4-2.1-2.4zm54.9 0c0.3 0-1.2 2.3-2.2 3.5-0.5 0.6-0.2 0.1 0.6-1.2 0.8-1.3 1.5-2.3 1.6-2.3zm-48.5 5.9c1.1 0.5 3.3 2.9 2.8 2.9-0.2 0-1.1-0.7-2-1.7-0.8-0.9-1.2-1.4-0.8-1.2zm44.3-0.3c0.5 0-2.4 2.8-4.3 4.2-1.1 0.8-1 0.6 0.6-0.8 1.2-1.1 2.5-2.3 2.8-2.7 0.3-0.4 0.8-0.7 0.9-0.7zm-36 6.4c1.6 0.9 2.8 1.6 2.6 1.6-0.3 0-4.5-2.1-5.5-2.8-1.3-0.9 0.2-0.3 2.9 1.2zm26.9 0.4c0.3 0 0 0.3-0.6 0.6-0.5 0.3-1.1 0.6-1.4 0.6-0.2 0 0.1-0.3 0.6-0.6 0.6-0.3 1.2-0.6 1.4-0.6zm-18 2.4c0.7 0 0.7 0.1 0.2 0.4-0.3 0.2-0.9 0.4-1.4 0.4-0.6 0-0.7-0.1-0.2-0.4 0.4-0.2 1-0.4 1.4-0.4zm10 0c0.5 0 1.1 0.2 1.2 0.4 0.2 0.2-0.1 0.4-0.7 0.4-0.6 0-1.1-0.2-1.3-0.4-0.1-0.2 0.2-0.4 0.8-0.4zm-5.2 0.4c2.2 0 3.4 0.1 3.2 0.4-0.3 0.5-5.4 0.5-6.2 0-0.4-0.3 0.5-0.4 3-0.4z"/>
	</g>
	<g id="Carpeta 1">
	</g>
</svg>